# Goxel 0.14.0
v -5 14 0 0.415686 0.745098 0.188235
v -4 14 0 0.415686 0.745098 0.188235
v -4 15 0 0.415686 0.745098 0.188235
v -5 15 0 0.415686 0.745098 0.188235
v -5 14 -1 0.415686 0.745098 0.188235
v -4 14 -1 0.415686 0.745098 0.188235
v -5 15 -1 0.415686 0.745098 0.188235
v -3 14 0 0.415686 0.745098 0.188235
v -3 15 0 0.415686 0.745098 0.188235
v -3 14 -1 0.415686 0.745098 0.188235
v -2 14 0 0.415686 0.745098 0.188235
v -2 15 0 0.415686 0.745098 0.188235
v -2 14 -1 0.415686 0.745098 0.188235
v -2 15 -1 0.415686 0.745098 0.188235
v -5 14 -2 0.415686 0.745098 0.188235
v -4 14 -2 0.415686 0.745098 0.188235
v -5 15 -2 0.415686 0.745098 0.188235
v -3 14 -2 0.415686 0.745098 0.188235
v -2 14 -2 0.415686 0.745098 0.188235
v -2 15 -2 0.415686 0.745098 0.188235
v -5 14 -3 0.415686 0.745098 0.188235
v -4 14 -3 0.415686 0.745098 0.188235
v -5 15 -3 0.415686 0.745098 0.188235
v -3 14 -3 0.415686 0.745098 0.188235
v -2 14 -3 0.415686 0.745098 0.188235
v -2 15 -3 0.415686 0.745098 0.188235
v -5 14 -4 0.415686 0.745098 0.188235
v -4 14 -4 0.415686 0.745098 0.188235
v -5 15 -4 0.415686 0.745098 0.188235
v -3 14 -4 0.415686 0.745098 0.188235
v -2 14 -4 0.415686 0.745098 0.188235
v -2 15 -4 0.415686 0.745098 0.188235
v -4 14 -5 0.415686 0.745098 0.188235
v -5 14 -5 0.415686 0.745098 0.188235
v -5 15 -5 0.415686 0.745098 0.188235
v -4 15 -5 0.415686 0.745098 0.188235
v -3 14 -5 0.415686 0.745098 0.188235
v -3 15 -5 0.415686 0.745098 0.188235
v -2 14 -5 0.415686 0.745098 0.188235
v -2 15 -5 0.415686 0.745098 0.188235
v -4 16 0 0.415686 0.745098 0.188235
v -5 16 0 0.415686 0.745098 0.188235
v -5 16 -1 0.415686 0.745098 0.188235
v -3 16 0 0.415686 0.745098 0.188235
v -2 16 0 0.415686 0.745098 0.188235
v -2 16 -1 0.415686 0.745098 0.188235
v -5 16 -2 0.415686 0.745098 0.188235
v -2 16 -2 0.415686 0.745098 0.188235
v -5 16 -3 0.415686 0.745098 0.188235
v -2 16 -3 0.415686 0.745098 0.188235
v -5 16 -4 0.415686 0.745098 0.188235
v -2 16 -4 0.415686 0.745098 0.188235
v -5 16 -5 0.415686 0.745098 0.188235
v -4 16 -5 0.415686 0.745098 0.188235
v -3 16 -5 0.415686 0.745098 0.188235
v -2 16 -5 0.415686 0.745098 0.188235
v -4 17 0 0.415686 0.745098 0.188235
v -5 17 0 0.415686 0.745098 0.188235
v -4 17 -1 0.415686 0.745098 0.188235
v -5 17 -1 0.415686 0.745098 0.188235
v -3 17 0 0.415686 0.745098 0.188235
v -3 17 -1 0.415686 0.745098 0.188235
v -2 17 0 0.415686 0.745098 0.188235
v -2 17 -1 0.415686 0.745098 0.188235
v -4 17 -2 0.415686 0.745098 0.188235
v -5 17 -2 0.415686 0.745098 0.188235
v -3 17 -2 0.415686 0.745098 0.188235
v -2 17 -2 0.415686 0.745098 0.188235
v -4 17 -3 0.415686 0.745098 0.188235
v -5 17 -3 0.415686 0.745098 0.188235
v -3 17 -3 0.415686 0.745098 0.188235
v -2 17 -3 0.415686 0.745098 0.188235
v -4 17 -4 0.415686 0.745098 0.188235
v -5 17 -4 0.415686 0.745098 0.188235
v -3 17 -4 0.415686 0.745098 0.188235
v -2 17 -4 0.415686 0.745098 0.188235
v -5 17 -5 0.415686 0.745098 0.188235
v -4 17 -5 0.415686 0.745098 0.188235
v -3 17 -5 0.415686 0.745098 0.188235
v -2 17 -5 0.415686 0.745098 0.188235
vn 0 0 1
vn 0 -1 -0
vn -1 0 0
vn 1 0 0
vn 0 0 -1
vn 0 1 0
f 1//1 2//1 3//1 4//1
f 1//2 5//2 6//2 2//2
f 1//3 4//3 7//3 5//3
f 2//1 8//1 9//1 3//1
f 2//2 6//2 10//2 8//2
f 8//1 11//1 12//1 9//1
f 8//2 10//2 13//2 11//2
f 11//4 13//4 14//4 12//4
f 5//2 15//2 16//2 6//2
f 5//3 7//3 17//3 15//3
f 6//2 16//2 18//2 10//2
f 10//2 18//2 19//2 13//2
f 13//4 19//4 20//4 14//4
f 15//2 21//2 22//2 16//2
f 15//3 17//3 23//3 21//3
f 16//2 22//2 24//2 18//2
f 18//2 24//2 25//2 19//2
f 19//4 25//4 26//4 20//4
f 21//2 27//2 28//2 22//2
f 21//3 23//3 29//3 27//3
f 22//2 28//2 30//2 24//2
f 24//2 30//2 31//2 25//2
f 25//4 31//4 32//4 26//4
f 33//5 34//5 35//5 36//5
f 27//2 34//2 33//2 28//2
f 27//3 29//3 35//3 34//3
f 37//5 33//5 36//5 38//5
f 28//2 33//2 37//2 30//2
f 39//5 37//5 38//5 40//5
f 30//2 37//2 39//2 31//2
f 31//4 39//4 40//4 32//4
f 4//1 3//1 41//1 42//1
f 4//3 42//3 43//3 7//3
f 3//1 9//1 44//1 41//1
f 9//1 12//1 45//1 44//1
f 12//4 14//4 46//4 45//4
f 7//3 43//3 47//3 17//3
f 14//4 20//4 48//4 46//4
f 17//3 47//3 49//3 23//3
f 20//4 26//4 50//4 48//4
f 23//3 49//3 51//3 29//3
f 26//4 32//4 52//4 50//4
f 36//5 35//5 53//5 54//5
f 29//3 51//3 53//3 35//3
f 38//5 36//5 54//5 55//5
f 40//5 38//5 55//5 56//5
f 32//4 40//4 56//4 52//4
f 42//1 41//1 57//1 58//1
f 57//6 59//6 60//6 58//6
f 42//3 58//3 60//3 43//3
f 41//1 44//1 61//1 57//1
f 61//6 62//6 59//6 57//6
f 44//1 45//1 63//1 61//1
f 63//6 64//6 62//6 61//6
f 45//4 46//4 64//4 63//4
f 59//6 65//6 66//6 60//6
f 43//3 60//3 66//3 47//3
f 62//6 67//6 65//6 59//6
f 64//6 68//6 67//6 62//6
f 46//4 48//4 68//4 64//4
f 65//6 69//6 70//6 66//6
f 47//3 66//3 70//3 49//3
f 67//6 71//6 69//6 65//6
f 68//6 72//6 71//6 67//6
f 48//4 50//4 72//4 68//4
f 69//6 73//6 74//6 70//6
f 49//3 70//3 74//3 51//3
f 71//6 75//6 73//6 69//6
f 72//6 76//6 75//6 71//6
f 50//4 52//4 76//4 72//4
f 54//5 53//5 77//5 78//5
f 73//6 78//6 77//6 74//6
f 51//3 74//3 77//3 53//3
f 55//5 54//5 78//5 79//5
f 75//6 79//6 78//6 73//6
f 56//5 55//5 79//5 80//5
f 76//6 80//6 79//6 75//6
f 52//4 56//4 80//4 76//4
