# Goxel 0.14.0
v -5 10 0 0.400000 0.223529 0.192157
v -4 10 0 0.400000 0.223529 0.192157
v -4 11 0 0.400000 0.223529 0.192157
v -5 11 0 0.400000 0.223529 0.192157
v -5 10 -1 0.400000 0.223529 0.192157
v -4 10 -1 0.400000 0.223529 0.192157
v -5 11 -1 0.400000 0.223529 0.192157
v -3 10 0 0.400000 0.223529 0.192157
v -3 11 0 0.400000 0.223529 0.192157
v -3 10 -1 0.400000 0.223529 0.192157
v -2 10 0 0.400000 0.223529 0.192157
v -2 11 0 0.400000 0.223529 0.192157
v -2 10 -1 0.400000 0.223529 0.192157
v -2 11 -1 0.400000 0.223529 0.192157
v -3 11 -1 0.400000 0.223529 0.192157
v -4 10 -2 0.400000 0.223529 0.192157
v -5 10 -2 0.400000 0.223529 0.192157
v -5 11 -2 0.400000 0.223529 0.192157
v -4 11 -2 0.400000 0.223529 0.192157
v -3 10 -2 0.400000 0.223529 0.192157
v -3 11 -2 0.400000 0.223529 0.192157
v -2 10 -2 0.400000 0.223529 0.192157
v -2 11 -2 0.400000 0.223529 0.192157
v -5 11 0 0.560784 0.337255 0.231373
v -4 11 0 0.560784 0.337255 0.231373
v -4 12 0 0.560784 0.337255 0.231373
v -5 12 0 0.560784 0.337255 0.231373
v -5 12 -1 0.560784 0.337255 0.231373
v -5 11 -1 0.560784 0.337255 0.231373
v -3 11 0 0.560784 0.337255 0.231373
v -3 12 0 0.560784 0.337255 0.231373
v -3 11 -1 0.560784 0.337255 0.231373
v -3 12 -1 0.560784 0.337255 0.231373
v -4 11 -2 0.560784 0.337255 0.231373
v -5 11 -2 0.560784 0.337255 0.231373
v -5 12 -2 0.560784 0.337255 0.231373
v -4 12 -2 0.560784 0.337255 0.231373
v -3 11 -2 0.560784 0.337255 0.231373
v -3 12 -2 0.560784 0.337255 0.231373
v -4 13 0 0.560784 0.337255 0.231373
v -5 13 0 0.560784 0.337255 0.231373
v -4 13 -1 0.560784 0.337255 0.231373
v -5 13 -1 0.560784 0.337255 0.231373
v -3 13 0 0.560784 0.337255 0.231373
v -3 13 -1 0.560784 0.337255 0.231373
v -5 13 -2 0.560784 0.337255 0.231373
v -4 13 -2 0.560784 0.337255 0.231373
v -3 13 -2 0.560784 0.337255 0.231373
vn 0 0 1
vn 0 -1 -0
vn -1 0 0
vn 0 1 0
vn 1 0 0
vn 0 0 -1
f 1//1 2//1 3//1 4//1
f 1//2 5//2 6//2 2//2
f 1//3 4//3 7//3 5//3
f 2//1 8//1 9//1 3//1
f 2//2 6//2 10//2 8//2
f 8//1 11//1 12//1 9//1
f 8//2 10//2 13//2 11//2
f 12//4 14//4 15//4 9//4
f 11//5 13//5 14//5 12//5
f 16//6 17//6 18//6 19//6
f 5//2 17//2 16//2 6//2
f 5//3 7//3 18//3 17//3
f 20//6 16//6 19//6 21//6
f 6//2 16//2 20//2 10//2
f 22//6 20//6 21//6 23//6
f 10//2 20//2 22//2 13//2
f 14//4 23//4 21//4 15//4
f 13//5 22//5 23//5 14//5
f 24//1 25//1 26//1 27//1
f 24//3 27//3 28//3 29//3
f 25//1 30//1 31//1 26//1
f 30//5 32//5 33//5 31//5
f 34//6 35//6 36//6 37//6
f 29//3 28//3 36//3 35//3
f 38//6 34//6 37//6 39//6
f 32//5 38//5 39//5 33//5
f 27//1 26//1 40//1 41//1
f 40//4 42//4 43//4 41//4
f 27//3 41//3 43//3 28//3
f 26//1 31//1 44//1 40//1
f 44//4 45//4 42//4 40//4
f 31//5 33//5 45//5 44//5
f 37//6 36//6 46//6 47//6
f 42//4 47//4 46//4 43//4
f 28//3 43//3 46//3 36//3
f 39//6 37//6 47//6 48//6
f 45//4 48//4 47//4 42//4
f 33//5 39//5 48//5 45//5
