# Goxel 0.14.0
v -5 12 0 0.560784 0.337255 0.231373
v -4 12 0 0.560784 0.337255 0.231373
v -4 13 0 0.560784 0.337255 0.231373
v -5 13 0 0.560784 0.337255 0.231373
v -5 12 -1 0.560784 0.337255 0.231373
v -4 12 -1 0.560784 0.337255 0.231373
v -5 13 -1 0.560784 0.337255 0.231373
v -3 12 0 0.560784 0.337255 0.231373
v -3 13 0 0.560784 0.337255 0.231373
v -3 12 -1 0.560784 0.337255 0.231373
v -2 12 0 0.560784 0.337255 0.231373
v -2 13 0 0.560784 0.337255 0.231373
v -2 12 -1 0.560784 0.337255 0.231373
v -2 13 -1 0.560784 0.337255 0.231373
v -5 12 -2 0.560784 0.337255 0.231373
v -4 12 -2 0.560784 0.337255 0.231373
v -5 13 -2 0.560784 0.337255 0.231373
v -3 12 -2 0.560784 0.337255 0.231373
v -2 12 -2 0.560784 0.337255 0.231373
v -2 13 -2 0.560784 0.337255 0.231373
v -5 12 -3 0.560784 0.337255 0.231373
v -4 12 -3 0.560784 0.337255 0.231373
v -5 13 -3 0.560784 0.337255 0.231373
v -3 12 -3 0.560784 0.337255 0.231373
v -2 12 -3 0.560784 0.337255 0.231373
v -2 13 -3 0.560784 0.337255 0.231373
v -5 12 -4 0.560784 0.337255 0.231373
v -4 12 -4 0.560784 0.337255 0.231373
v -5 13 -4 0.560784 0.337255 0.231373
v -3 12 -4 0.560784 0.337255 0.231373
v -2 12 -4 0.560784 0.337255 0.231373
v -2 13 -4 0.560784 0.337255 0.231373
v -4 12 -5 0.560784 0.337255 0.231373
v -5 12 -5 0.560784 0.337255 0.231373
v -5 13 -5 0.560784 0.337255 0.231373
v -4 13 -5 0.560784 0.337255 0.231373
v -3 12 -5 0.560784 0.337255 0.231373
v -3 13 -5 0.560784 0.337255 0.231373
v -2 12 -5 0.560784 0.337255 0.231373
v -2 13 -5 0.560784 0.337255 0.231373
v -5 13 0 0.400000 0.223529 0.192157
v -4 13 0 0.400000 0.223529 0.192157
v -4 14 0 0.400000 0.223529 0.192157
v -5 14 0 0.400000 0.223529 0.192157
v -4 14 -1 0.400000 0.223529 0.192157
v -5 14 -1 0.400000 0.223529 0.192157
v -5 13 -1 0.400000 0.223529 0.192157
v -3 13 0 0.400000 0.223529 0.192157
v -3 14 0 0.400000 0.223529 0.192157
v -3 14 -1 0.400000 0.223529 0.192157
v -2 13 0 0.400000 0.223529 0.192157
v -2 14 0 0.400000 0.223529 0.192157
v -2 14 -1 0.400000 0.223529 0.192157
v -2 13 -1 0.400000 0.223529 0.192157
v -4 14 -2 0.400000 0.223529 0.192157
v -5 14 -2 0.400000 0.223529 0.192157
v -5 13 -2 0.400000 0.223529 0.192157
v -3 14 -2 0.400000 0.223529 0.192157
v -2 14 -2 0.400000 0.223529 0.192157
v -2 13 -2 0.400000 0.223529 0.192157
v -4 14 -3 0.400000 0.223529 0.192157
v -5 14 -3 0.400000 0.223529 0.192157
v -5 13 -3 0.400000 0.223529 0.192157
v -3 14 -3 0.400000 0.223529 0.192157
v -2 14 -3 0.400000 0.223529 0.192157
v -2 13 -3 0.400000 0.223529 0.192157
v -4 14 -4 0.400000 0.223529 0.192157
v -5 14 -4 0.400000 0.223529 0.192157
v -5 13 -4 0.400000 0.223529 0.192157
v -3 14 -4 0.400000 0.223529 0.192157
v -2 14 -4 0.400000 0.223529 0.192157
v -2 13 -4 0.400000 0.223529 0.192157
v -4 13 -5 0.400000 0.223529 0.192157
v -5 13 -5 0.400000 0.223529 0.192157
v -5 14 -5 0.400000 0.223529 0.192157
v -4 14 -5 0.400000 0.223529 0.192157
v -3 13 -5 0.400000 0.223529 0.192157
v -3 14 -5 0.400000 0.223529 0.192157
v -2 13 -5 0.400000 0.223529 0.192157
v -2 14 -5 0.400000 0.223529 0.192157
vn 0 0 1
vn 0 -1 -0
vn -1 0 0
vn 1 0 0
vn 0 0 -1
vn 0 1 0
f 1//1 2//1 3//1 4//1
f 1//2 5//2 6//2 2//2
f 1//3 4//3 7//3 5//3
f 2//1 8//1 9//1 3//1
f 2//2 6//2 10//2 8//2
f 8//1 11//1 12//1 9//1
f 8//2 10//2 13//2 11//2
f 11//4 13//4 14//4 12//4
f 5//2 15//2 16//2 6//2
f 5//3 7//3 17//3 15//3
f 6//2 16//2 18//2 10//2
f 10//2 18//2 19//2 13//2
f 13//4 19//4 20//4 14//4
f 15//2 21//2 22//2 16//2
f 15//3 17//3 23//3 21//3
f 16//2 22//2 24//2 18//2
f 18//2 24//2 25//2 19//2
f 19//4 25//4 26//4 20//4
f 21//2 27//2 28//2 22//2
f 21//3 23//3 29//3 27//3
f 22//2 28//2 30//2 24//2
f 24//2 30//2 31//2 25//2
f 25//4 31//4 32//4 26//4
f 33//5 34//5 35//5 36//5
f 27//2 34//2 33//2 28//2
f 27//3 29//3 35//3 34//3
f 37//5 33//5 36//5 38//5
f 28//2 33//2 37//2 30//2
f 39//5 37//5 38//5 40//5
f 30//2 37//2 39//2 31//2
f 31//4 39//4 40//4 32//4
f 41//1 42//1 43//1 44//1
f 43//6 45//6 46//6 44//6
f 41//3 44//3 46//3 47//3
f 42//1 48//1 49//1 43//1
f 49//6 50//6 45//6 43//6
f 48//1 51//1 52//1 49//1
f 52//6 53//6 50//6 49//6
f 51//4 54//4 53//4 52//4
f 45//6 55//6 56//6 46//6
f 47//3 46//3 56//3 57//3
f 50//6 58//6 55//6 45//6
f 53//6 59//6 58//6 50//6
f 54//4 60//4 59//4 53//4
f 55//6 61//6 62//6 56//6
f 57//3 56//3 62//3 63//3
f 58//6 64//6 61//6 55//6
f 59//6 65//6 64//6 58//6
f 60//4 66//4 65//4 59//4
f 61//6 67//6 68//6 62//6
f 63//3 62//3 68//3 69//3
f 64//6 70//6 67//6 61//6
f 65//6 71//6 70//6 64//6
f 66//4 72//4 71//4 65//4
f 73//5 74//5 75//5 76//5
f 67//6 76//6 75//6 68//6
f 69//3 68//3 75//3 74//3
f 77//5 73//5 76//5 78//5
f 70//6 78//6 76//6 67//6
f 79//5 77//5 78//5 80//5
f 71//6 80//6 78//6 70//6
f 72//4 79//4 80//4 71//4
