# Goxel 0.14.0
v -5 10 0 0.400000 0.223529 0.192157
v -4 10 0 0.400000 0.223529 0.192157
v -4 11 0 0.400000 0.223529 0.192157
v -5 11 0 0.400000 0.223529 0.192157
v -5 10 -1 0.400000 0.223529 0.192157
v -4 10 -1 0.400000 0.223529 0.192157
v -5 11 -1 0.400000 0.223529 0.192157
v -3 10 0 0.400000 0.223529 0.192157
v -3 11 0 0.400000 0.223529 0.192157
v -3 10 -1 0.400000 0.223529 0.192157
v -2 10 0 0.400000 0.223529 0.192157
v -2 11 0 0.400000 0.223529 0.192157
v -2 10 -1 0.400000 0.223529 0.192157
v -2 11 -1 0.400000 0.223529 0.192157
v -3 11 -1 0.400000 0.223529 0.192157
v -4 10 -2 0.400000 0.223529 0.192157
v -5 10 -2 0.400000 0.223529 0.192157
v -5 11 -2 0.400000 0.223529 0.192157
v -4 11 -2 0.400000 0.223529 0.192157
v -3 10 -2 0.400000 0.223529 0.192157
v -3 11 -2 0.400000 0.223529 0.192157
v -2 10 -2 0.400000 0.223529 0.192157
v -2 11 -2 0.400000 0.223529 0.192157
v -5 10 -3 0.400000 0.223529 0.192157
v -4 10 -3 0.400000 0.223529 0.192157
v -4 11 -3 0.400000 0.223529 0.192157
v -5 11 -3 0.400000 0.223529 0.192157
v -5 10 -4 0.400000 0.223529 0.192157
v -4 10 -4 0.400000 0.223529 0.192157
v -5 11 -4 0.400000 0.223529 0.192157
v -3 10 -3 0.400000 0.223529 0.192157
v -3 11 -3 0.400000 0.223529 0.192157
v -3 10 -4 0.400000 0.223529 0.192157
v -2 10 -3 0.400000 0.223529 0.192157
v -2 11 -3 0.400000 0.223529 0.192157
v -2 10 -4 0.400000 0.223529 0.192157
v -2 11 -4 0.400000 0.223529 0.192157
v -3 11 -4 0.400000 0.223529 0.192157
v -4 10 -5 0.400000 0.223529 0.192157
v -5 10 -5 0.400000 0.223529 0.192157
v -5 11 -5 0.400000 0.223529 0.192157
v -4 11 -5 0.400000 0.223529 0.192157
v -3 10 -5 0.400000 0.223529 0.192157
v -3 11 -5 0.400000 0.223529 0.192157
v -2 10 -5 0.400000 0.223529 0.192157
v -2 11 -5 0.400000 0.223529 0.192157
v -5 11 0 0.560784 0.337255 0.231373
v -4 11 0 0.560784 0.337255 0.231373
v -4 12 0 0.560784 0.337255 0.231373
v -5 12 0 0.560784 0.337255 0.231373
v -5 12 -1 0.560784 0.337255 0.231373
v -5 11 -1 0.560784 0.337255 0.231373
v -3 11 0 0.560784 0.337255 0.231373
v -3 12 0 0.560784 0.337255 0.231373
v -3 11 -1 0.560784 0.337255 0.231373
v -3 12 -1 0.560784 0.337255 0.231373
v -4 11 -2 0.560784 0.337255 0.231373
v -5 11 -2 0.560784 0.337255 0.231373
v -5 12 -2 0.560784 0.337255 0.231373
v -4 12 -2 0.560784 0.337255 0.231373
v -3 11 -2 0.560784 0.337255 0.231373
v -3 12 -2 0.560784 0.337255 0.231373
v -5 11 -3 0.560784 0.337255 0.231373
v -4 11 -3 0.560784 0.337255 0.231373
v -4 12 -3 0.560784 0.337255 0.231373
v -5 12 -3 0.560784 0.337255 0.231373
v -5 12 -4 0.560784 0.337255 0.231373
v -5 11 -4 0.560784 0.337255 0.231373
v -3 11 -3 0.560784 0.337255 0.231373
v -3 12 -3 0.560784 0.337255 0.231373
v -3 11 -4 0.560784 0.337255 0.231373
v -3 12 -4 0.560784 0.337255 0.231373
v -4 11 -5 0.560784 0.337255 0.231373
v -5 11 -5 0.560784 0.337255 0.231373
v -5 12 -5 0.560784 0.337255 0.231373
v -4 12 -5 0.560784 0.337255 0.231373
v -3 11 -5 0.560784 0.337255 0.231373
v -3 12 -5 0.560784 0.337255 0.231373
v -5 13 0 0.560784 0.337255 0.231373
v -5 13 -1 0.560784 0.337255 0.231373
v -2 12 0 0.560784 0.337255 0.231373
v -2 13 0 0.560784 0.337255 0.231373
v -3 13 0 0.560784 0.337255 0.231373
v -2 12 -1 0.560784 0.337255 0.231373
v -2 13 -1 0.560784 0.337255 0.231373
v -5 13 -2 0.560784 0.337255 0.231373
v -2 12 -2 0.560784 0.337255 0.231373
v -2 13 -2 0.560784 0.337255 0.231373
v -5 13 -3 0.560784 0.337255 0.231373
v -2 12 -3 0.560784 0.337255 0.231373
v -2 13 -3 0.560784 0.337255 0.231373
v -5 13 -4 0.560784 0.337255 0.231373
v -2 12 -4 0.560784 0.337255 0.231373
v -2 13 -4 0.560784 0.337255 0.231373
v -5 13 -5 0.560784 0.337255 0.231373
v -2 12 -5 0.560784 0.337255 0.231373
v -3 13 -5 0.560784 0.337255 0.231373
v -2 13 -5 0.560784 0.337255 0.231373
v -4 12 -6 0.933333 0.764706 0.603922
v -5 12 -6 0.933333 0.764706 0.603922
v -5 13 -6 0.933333 0.764706 0.603922
v -4 13 -6 0.933333 0.764706 0.603922
v -5 12 -5 0.933333 0.764706 0.603922
v -4 12 -5 0.933333 0.764706 0.603922
v -5 13 -5 0.933333 0.764706 0.603922
v -3 12 -6 0.933333 0.764706 0.603922
v -3 13 -6 0.933333 0.764706 0.603922
v -3 12 -5 0.933333 0.764706 0.603922
v -3 13 -5 0.933333 0.764706 0.603922
v -5 13 0 0.400000 0.223529 0.192157
v -5 14 0 0.400000 0.223529 0.192157
v -5 14 -1 0.400000 0.223529 0.192157
v -5 13 -1 0.400000 0.223529 0.192157
v -2 13 0 0.400000 0.223529 0.192157
v -2 13 -1 0.400000 0.223529 0.192157
v -2 14 -1 0.400000 0.223529 0.192157
v -2 14 0 0.400000 0.223529 0.192157
v -5 14 -2 0.400000 0.223529 0.192157
v -5 13 -2 0.400000 0.223529 0.192157
v -2 13 -2 0.400000 0.223529 0.192157
v -2 14 -2 0.400000 0.223529 0.192157
v -5 14 -3 0.400000 0.223529 0.192157
v -5 13 -3 0.400000 0.223529 0.192157
v -2 13 -3 0.400000 0.223529 0.192157
v -2 14 -3 0.400000 0.223529 0.192157
v -5 14 -4 0.400000 0.223529 0.192157
v -5 13 -4 0.400000 0.223529 0.192157
v -2 13 -4 0.400000 0.223529 0.192157
v -2 14 -4 0.400000 0.223529 0.192157
v -5 14 -5 0.400000 0.223529 0.192157
v -5 13 -5 0.400000 0.223529 0.192157
v -2 13 -5 0.400000 0.223529 0.192157
v -2 14 -5 0.400000 0.223529 0.192157
v -5 14 -6 0.933333 0.764706 0.603922
v -4 14 -6 0.933333 0.764706 0.603922
v -5 14 -5 0.933333 0.764706 0.603922
v -3 14 -6 0.933333 0.764706 0.603922
v -2 13 -6 0.933333 0.764706 0.603922
v -2 14 -6 0.933333 0.764706 0.603922
v -2 13 -5 0.933333 0.764706 0.603922
v -2 14 -5 0.933333 0.764706 0.603922
v -3 14 -5 0.933333 0.764706 0.603922
v -5 14 0 0.415686 0.745098 0.188235
v -5 15 0 0.415686 0.745098 0.188235
v -5 15 -1 0.415686 0.745098 0.188235
v -5 14 -1 0.415686 0.745098 0.188235
v -3 14 0 0.415686 0.745098 0.188235
v -2 14 0 0.415686 0.745098 0.188235
v -2 15 0 0.415686 0.745098 0.188235
v -3 15 0 0.415686 0.745098 0.188235
v -2 14 -1 0.415686 0.745098 0.188235
v -2 15 -1 0.415686 0.745098 0.188235
v -5 15 -2 0.415686 0.745098 0.188235
v -5 14 -2 0.415686 0.745098 0.188235
v -2 14 -2 0.415686 0.745098 0.188235
v -2 15 -2 0.415686 0.745098 0.188235
v -5 15 -3 0.415686 0.745098 0.188235
v -5 14 -3 0.415686 0.745098 0.188235
v -2 14 -3 0.415686 0.745098 0.188235
v -2 15 -3 0.415686 0.745098 0.188235
v -5 15 -4 0.415686 0.745098 0.188235
v -5 14 -4 0.415686 0.745098 0.188235
v -2 14 -4 0.415686 0.745098 0.188235
v -2 15 -4 0.415686 0.745098 0.188235
v -5 15 -5 0.415686 0.745098 0.188235
v -5 14 -5 0.415686 0.745098 0.188235
v -2 14 -5 0.415686 0.745098 0.188235
v -3 14 -5 0.415686 0.745098 0.188235
v -3 15 -5 0.415686 0.745098 0.188235
v -2 15 -5 0.415686 0.745098 0.188235
v -4 14 -6 0.415686 0.745098 0.188235
v -5 14 -6 0.415686 0.745098 0.188235
v -5 15 -6 0.415686 0.745098 0.188235
v -4 15 -6 0.415686 0.745098 0.188235
v -3 14 -6 0.415686 0.745098 0.188235
v -3 15 -6 0.415686 0.745098 0.188235
v -5 16 0 0.415686 0.745098 0.188235
v -5 16 -1 0.415686 0.745098 0.188235
v -2 16 0 0.415686 0.745098 0.188235
v -3 16 0 0.415686 0.745098 0.188235
v -2 16 -1 0.415686 0.745098 0.188235
v -5 16 -2 0.415686 0.745098 0.188235
v -2 16 -2 0.415686 0.745098 0.188235
v -5 16 -3 0.415686 0.745098 0.188235
v -2 16 -3 0.415686 0.745098 0.188235
v -5 16 -4 0.415686 0.745098 0.188235
v -2 16 -4 0.415686 0.745098 0.188235
v -5 16 -5 0.415686 0.745098 0.188235
v -3 16 -5 0.415686 0.745098 0.188235
v -2 16 -5 0.415686 0.745098 0.188235
v -5 16 -6 0.415686 0.745098 0.188235
v -4 16 -6 0.415686 0.745098 0.188235
v -4 16 -5 0.415686 0.745098 0.188235
v -3 16 -6 0.415686 0.745098 0.188235
v -4 16 1 0.415686 0.745098 0.188235
v -3 16 1 0.415686 0.745098 0.188235
v -3 17 1 0.415686 0.745098 0.188235
v -4 17 1 0.415686 0.745098 0.188235
v -3 17 0 0.415686 0.745098 0.188235
v -4 17 0 0.415686 0.745098 0.188235
v -4 16 0 0.415686 0.745098 0.188235
v -5 18 1 0.933333 0.764706 0.603922
v -4 18 1 0.933333 0.764706 0.603922
v -4 19 1 0.933333 0.764706 0.603922
v -5 19 1 0.933333 0.764706 0.603922
v -5 18 0 0.933333 0.764706 0.603922
v -4 18 0 0.933333 0.764706 0.603922
v -4 19 0 0.933333 0.764706 0.603922
v -5 19 0 0.933333 0.764706 0.603922
v -4 20 1 0.933333 0.764706 0.603922
v -5 20 1 0.933333 0.764706 0.603922
v -4 20 0 0.933333 0.764706 0.603922
v -5 20 0 0.933333 0.764706 0.603922
v -5 17 0 0.415686 0.745098 0.188235
v -5 17 -1 0.415686 0.745098 0.188235
v -2 17 0 0.415686 0.745098 0.188235
v -2 17 -1 0.415686 0.745098 0.188235
v -5 17 -2 0.415686 0.745098 0.188235
v -2 17 -2 0.415686 0.745098 0.188235
v -5 17 -3 0.415686 0.745098 0.188235
v -2 17 -3 0.415686 0.745098 0.188235
v -5 17 -4 0.415686 0.745098 0.188235
v -2 17 -4 0.415686 0.745098 0.188235
v -5 17 -5 0.415686 0.745098 0.188235
v -4 17 -5 0.415686 0.745098 0.188235
v -3 17 -5 0.415686 0.745098 0.188235
v -2 17 -5 0.415686 0.745098 0.188235
v -4 17 -6 0.415686 0.745098 0.188235
v -3 17 -6 0.415686 0.745098 0.188235
v -5 17 0 0.933333 0.764706 0.603922
v -4 17 0 0.933333 0.764706 0.603922
v -5 18 -1 0.933333 0.764706 0.603922
v -5 17 -1 0.933333 0.764706 0.603922
v -3 17 0 0.933333 0.764706 0.603922
v -3 18 0 0.933333 0.764706 0.603922
v -2 17 0 0.933333 0.764706 0.603922
v -2 18 0 0.933333 0.764706 0.603922
v -2 17 -1 0.933333 0.764706 0.603922
v -2 18 -1 0.933333 0.764706 0.603922
v -6 17 -1 0.400000 0.223529 0.192157
v -5 17 -1 0.400000 0.223529 0.192157
v -5 18 -1 0.400000 0.223529 0.192157
v -6 18 -1 0.400000 0.223529 0.192157
v -6 17 -2 0.400000 0.223529 0.192157
v -5 17 -2 0.400000 0.223529 0.192157
v -6 18 -2 0.400000 0.223529 0.192157
v -1 17 -1 0.933333 0.764706 0.603922
v -1 18 -1 0.933333 0.764706 0.603922
v -2 17 -2 0.933333 0.764706 0.603922
v -1 17 -2 0.933333 0.764706 0.603922
v -1 18 -2 0.933333 0.764706 0.603922
v -6 17 -3 0.400000 0.223529 0.192157
v -5 17 -3 0.400000 0.223529 0.192157
v -6 18 -3 0.400000 0.223529 0.192157
v -2 17 -3 0.933333 0.764706 0.603922
v -1 17 -3 0.933333 0.764706 0.603922
v -1 18 -3 0.933333 0.764706 0.603922
v -5 17 -4 0.400000 0.223529 0.192157
v -6 17 -4 0.400000 0.223529 0.192157
v -6 18 -4 0.400000 0.223529 0.192157
v -5 18 -4 0.400000 0.223529 0.192157
v -1 17 -4 0.933333 0.764706 0.603922
v -2 17 -4 0.933333 0.764706 0.603922
v -2 18 -4 0.933333 0.764706 0.603922
v -1 18 -4 0.933333 0.764706 0.603922
v -4 17 -5 0.933333 0.764706 0.603922
v -5 17 -5 0.933333 0.764706 0.603922
v -5 18 -5 0.933333 0.764706 0.603922
v -4 18 -5 0.933333 0.764706 0.603922
v -5 17 -4 0.933333 0.764706 0.603922
v -5 18 -4 0.933333 0.764706 0.603922
v -3 17 -5 0.933333 0.764706 0.603922
v -3 18 -5 0.933333 0.764706 0.603922
v -2 17 -5 0.933333 0.764706 0.603922
v -2 18 -5 0.933333 0.764706 0.603922
v -6 18 0 0.400000 0.223529 0.192157
v -5 18 0 0.400000 0.223529 0.192157
v -5 19 0 0.400000 0.223529 0.192157
v -6 19 0 0.400000 0.223529 0.192157
v -6 19 -1 0.400000 0.223529 0.192157
v -3 19 0 0.933333 0.764706 0.603922
v -2 19 0 0.933333 0.764706 0.603922
v -1 18 0 0.933333 0.764706 0.603922
v -1 19 0 0.933333 0.764706 0.603922
v -1 19 -1 0.933333 0.764706 0.603922
v -6 19 -2 0.400000 0.223529 0.192157
v -1 19 -2 0.933333 0.764706 0.603922
v -6 19 -3 0.400000 0.223529 0.192157
v 0 18 -2 0.933333 0.764706 0.603922
v 0 19 -2 0.933333 0.764706 0.603922
v 0 18 -3 0.933333 0.764706 0.603922
v -1 19 -3 0.933333 0.764706 0.603922
v 0 19 -3 0.933333 0.764706 0.603922
v -6 19 -4 0.400000 0.223529 0.192157
v -1 19 -4 0.933333 0.764706 0.603922
v -5 18 -5 0.400000 0.223529 0.192157
v -6 18 -5 0.400000 0.223529 0.192157
v -6 19 -5 0.400000 0.223529 0.192157
v -5 19 -5 0.400000 0.223529 0.192157
v -4 19 -5 0.933333 0.764706 0.603922
v -3 19 -5 0.933333 0.764706 0.603922
v -2 19 -5 0.933333 0.764706 0.603922
v -1 18 -5 0.933333 0.764706 0.603922
v -1 19 -5 0.933333 0.764706 0.603922
v -4 18 -6 0.933333 0.764706 0.603922
v -5 18 -6 0.933333 0.764706 0.603922
v -5 19 -6 0.933333 0.764706 0.603922
v -4 19 -6 0.933333 0.764706 0.603922
v -5 19 -5 0.933333 0.764706 0.603922
v -5 20 0 0.400000 0.223529 0.192157
v -6 20 0 0.400000 0.223529 0.192157
v -6 20 -1 0.400000 0.223529 0.192157
v -4 19 0 0.400000 0.223529 0.192157
v -3 19 0 0.400000 0.223529 0.192157
v -3 20 0 0.400000 0.223529 0.192157
v -4 20 0 0.400000 0.223529 0.192157
v -2 20 0 0.933333 0.764706 0.603922
v -3 20 0 0.933333 0.764706 0.603922
v -1 20 0 0.933333 0.764706 0.603922
v -1 20 -1 0.933333 0.764706 0.603922
v -6 20 -2 0.400000 0.223529 0.192157
v -1 19 -1 0.000000 0.000000 0.000000
v -1 19 -2 0.000000 0.000000 0.000000
v -1 20 -2 0.000000 0.000000 0.000000
v -1 20 -1 0.000000 0.000000 0.000000
v -6 20 -3 0.400000 0.223529 0.192157
v -1 20 -3 0.933333 0.764706 0.603922
v -1 20 -2 0.933333 0.764706 0.603922
v -6 20 -4 0.400000 0.223529 0.192157
v -1 19 -3 0.000000 0.000000 0.000000
v -1 19 -4 0.000000 0.000000 0.000000
v -1 20 -4 0.000000 0.000000 0.000000
v -1 20 -3 0.000000 0.000000 0.000000
v -6 20 -5 0.400000 0.223529 0.192157
v -5 20 -5 0.400000 0.223529 0.192157
v -3 19 -5 0.400000 0.223529 0.192157
v -4 19 -5 0.400000 0.223529 0.192157
v -4 20 -5 0.400000 0.223529 0.192157
v -3 20 -5 0.400000 0.223529 0.192157
v -3 20 -5 0.933333 0.764706 0.603922
v -2 20 -5 0.933333 0.764706 0.603922
v -1 20 -5 0.933333 0.764706 0.603922
v -1 20 -4 0.933333 0.764706 0.603922
v -5 20 -6 0.933333 0.764706 0.603922
v -4 20 -6 0.933333 0.764706 0.603922
v -4 20 -5 0.933333 0.764706 0.603922
v -5 20 -5 0.933333 0.764706 0.603922
v -5 21 0 0.400000 0.223529 0.192157
v -6 21 0 0.400000 0.223529 0.192157
v -5 21 -1 0.400000 0.223529 0.192157
v -6 21 -1 0.400000 0.223529 0.192157
v -4 21 0 0.400000 0.223529 0.192157
v -3 21 0 0.400000 0.223529 0.192157
v -2 20 0 0.400000 0.223529 0.192157
v -2 21 0 0.400000 0.223529 0.192157
v -1 21 0 0.933333 0.764706 0.603922
v -2 21 0 0.933333 0.764706 0.603922
v -1 21 -1 0.933333 0.764706 0.603922
v -6 21 -2 0.400000 0.223529 0.192157
v -1 21 -2 0.000000 0.000000 0.000000
v -1 21 -1 0.000000 0.000000 0.000000
v -6 21 -3 0.400000 0.223529 0.192157
v -1 21 -3 0.933333 0.764706 0.603922
v -1 21 -2 0.933333 0.764706 0.603922
v -6 21 -4 0.400000 0.223529 0.192157
v -1 21 -4 0.000000 0.000000 0.000000
v -1 21 -3 0.000000 0.000000 0.000000
v -6 21 -5 0.400000 0.223529 0.192157
v -5 21 -5 0.400000 0.223529 0.192157
v -5 21 -4 0.400000 0.223529 0.192157
v -4 21 -5 0.400000 0.223529 0.192157
v -3 21 -5 0.400000 0.223529 0.192157
v -2 20 -5 0.400000 0.223529 0.192157
v -2 21 -5 0.400000 0.223529 0.192157
v -2 21 -5 0.933333 0.764706 0.603922
v -1 21 -5 0.933333 0.764706 0.603922
v -1 21 -4 0.933333 0.764706 0.603922
v -2 21 -4 0.933333 0.764706 0.603922
v -4 22 0 0.400000 0.223529 0.192157
v -5 22 0 0.400000 0.223529 0.192157
v -4 22 -1 0.400000 0.223529 0.192157
v -5 22 -1 0.400000 0.223529 0.192157
v -3 22 0 0.400000 0.223529 0.192157
v -3 22 -1 0.400000 0.223529 0.192157
v -2 22 0 0.400000 0.223529 0.192157
v -1 21 0 0.400000 0.223529 0.192157
v -1 22 0 0.400000 0.223529 0.192157
v 0 21 0 0.400000 0.223529 0.192157
v 0 22 0 0.400000 0.223529 0.192157
v 0 21 -1 0.400000 0.223529 0.192157
v -1 21 -1 0.400000 0.223529 0.192157
v -1 22 -1 0.400000 0.223529 0.192157
v 0 22 -1 0.400000 0.223529 0.192157
v -6 22 -1 0.400000 0.223529 0.192157
v -5 22 -2 0.400000 0.223529 0.192157
v -6 22 -2 0.400000 0.223529 0.192157
v -4 22 -2 0.400000 0.223529 0.192157
v -1 22 -2 0.933333 0.764706 0.603922
v -1 22 -1 0.933333 0.764706 0.603922
v -5 22 -3 0.400000 0.223529 0.192157
v -6 22 -3 0.400000 0.223529 0.192157
v -1 21 -2 0.400000 0.223529 0.192157
v -1 21 -3 0.400000 0.223529 0.192157
v -1 22 -3 0.400000 0.223529 0.192157
v -1 22 -2 0.400000 0.223529 0.192157
v -6 22 -4 0.400000 0.223529 0.192157
v -5 22 -4 0.400000 0.223529 0.192157
v -4 22 -3 0.400000 0.223529 0.192157
v -4 22 -4 0.400000 0.223529 0.192157
v -2 22 -3 0.400000 0.223529 0.192157
v -2 22 -4 0.400000 0.223529 0.192157
v -3 22 -4 0.400000 0.223529 0.192157
v -3 22 -3 0.400000 0.223529 0.192157
v -1 21 -4 0.400000 0.223529 0.192157
v -2 21 -4 0.400000 0.223529 0.192157
v -1 22 -4 0.400000 0.223529 0.192157
v -5 22 -5 0.400000 0.223529 0.192157
v -4 22 -5 0.400000 0.223529 0.192157
v -3 22 -5 0.400000 0.223529 0.192157
v -2 22 -5 0.400000 0.223529 0.192157
v -2 23 0 0.400000 0.223529 0.192157
v -3 23 0 0.400000 0.223529 0.192157
v -2 23 -1 0.400000 0.223529 0.192157
v -3 23 -1 0.400000 0.223529 0.192157
v -1 23 0 0.400000 0.223529 0.192157
v -1 23 -1 0.400000 0.223529 0.192157
v 0 23 0 0.400000 0.223529 0.192157
v 0 23 -1 0.400000 0.223529 0.192157
v -4 23 -1 0.400000 0.223529 0.192157
v -3 23 -2 0.400000 0.223529 0.192157
v -4 23 -2 0.400000 0.223529 0.192157
v -2 23 -2 0.400000 0.223529 0.192157
v -1 23 -2 0.400000 0.223529 0.192157
v -5 23 -2 0.400000 0.223529 0.192157
v -5 23 -3 0.400000 0.223529 0.192157
v -4 23 -3 0.400000 0.223529 0.192157
v -3 23 -3 0.400000 0.223529 0.192157
v -2 23 -3 0.400000 0.223529 0.192157
v -1 23 -3 0.400000 0.223529 0.192157
v -4 23 -4 0.400000 0.223529 0.192157
v -3 23 -4 0.400000 0.223529 0.192157
v -5 12 1 0.933333 0.764706 0.603922
v -4 12 1 0.933333 0.764706 0.603922
v -4 13 1 0.933333 0.764706 0.603922
v -5 13 1 0.933333 0.764706 0.603922
v -5 12 0 0.933333 0.764706 0.603922
v -4 12 0 0.933333 0.764706 0.603922
v -5 13 0 0.933333 0.764706 0.603922
v -3 12 1 0.933333 0.764706 0.603922
v -3 13 1 0.933333 0.764706 0.603922
v -3 12 0 0.933333 0.764706 0.603922
v -3 13 0 0.933333 0.764706 0.603922
v -4 14 1 0.933333 0.764706 0.603922
v -5 14 1 0.933333 0.764706 0.603922
v -5 14 0 0.933333 0.764706 0.603922
v -3 14 1 0.933333 0.764706 0.603922
v -2 13 1 0.933333 0.764706 0.603922
v -2 14 1 0.933333 0.764706 0.603922
v -2 13 0 0.933333 0.764706 0.603922
v -2 14 0 0.933333 0.764706 0.603922
v -3 14 0 0.933333 0.764706 0.603922
v -5 14 1 0.415686 0.745098 0.188235
v -4 14 1 0.415686 0.745098 0.188235
v -4 15 1 0.415686 0.745098 0.188235
v -5 15 1 0.415686 0.745098 0.188235
v -3 14 1 0.415686 0.745098 0.188235
v -3 15 1 0.415686 0.745098 0.188235
v -5 16 1 0.415686 0.745098 0.188235
vn 0 0 1
vn 0 -1 -0
vn -1 0 0
vn 0 1 0
vn 1 0 0
vn 0 0 -1
f 1//1 2//1 3//1 4//1
f 1//2 5//2 6//2 2//2
f 1//3 4//3 7//3 5//3
f 2//1 8//1 9//1 3//1
f 2//2 6//2 10//2 8//2
f 8//1 11//1 12//1 9//1
f 8//2 10//2 13//2 11//2
f 12//4 14//4 15//4 9//4
f 11//5 13//5 14//5 12//5
f 16//6 17//6 18//6 19//6
f 5//2 17//2 16//2 6//2
f 5//3 7//3 18//3 17//3
f 20//6 16//6 19//6 21//6
f 6//2 16//2 20//2 10//2
f 22//6 20//6 21//6 23//6
f 10//2 20//2 22//2 13//2
f 14//4 23//4 21//4 15//4
f 13//5 22//5 23//5 14//5
f 24//1 25//1 26//1 27//1
f 24//2 28//2 29//2 25//2
f 24//3 27//3 30//3 28//3
f 25//1 31//1 32//1 26//1
f 25//2 29//2 33//2 31//2
f 31//1 34//1 35//1 32//1
f 31//2 33//2 36//2 34//2
f 35//4 37//4 38//4 32//4
f 34//5 36//5 37//5 35//5
f 39//6 40//6 41//6 42//6
f 28//2 40//2 39//2 29//2
f 28//3 30//3 41//3 40//3
f 43//6 39//6 42//6 44//6
f 29//2 39//2 43//2 33//2
f 45//6 43//6 44//6 46//6
f 33//2 43//2 45//2 36//2
f 37//4 46//4 44//4 38//4
f 36//5 45//5 46//5 37//5
f 47//1 48//1 49//1 50//1
f 47//3 50//3 51//3 52//3
f 48//1 53//1 54//1 49//1
f 53//5 55//5 56//5 54//5
f 57//6 58//6 59//6 60//6
f 52//3 51//3 59//3 58//3
f 61//6 57//6 60//6 62//6
f 55//5 61//5 62//5 56//5
f 63//1 64//1 65//1 66//1
f 63//3 66//3 67//3 68//3
f 64//1 69//1 70//1 65//1
f 69//5 71//5 72//5 70//5
f 73//6 74//6 75//6 76//6
f 68//3 67//3 75//3 74//3
f 77//6 73//6 76//6 78//6
f 71//5 77//5 78//5 72//5
f 50//3 79//3 80//3 51//3
f 54//1 81//1 82//1 83//1
f 54//2 56//2 84//2 81//2
f 81//5 84//5 85//5 82//5
f 51//3 80//3 86//3 59//3
f 56//2 62//2 87//2 84//2
f 84//5 87//5 88//5 85//5
f 59//2 66//2 65//2 60//2
f 59//3 86//3 89//3 66//3
f 60//2 65//2 70//2 62//2
f 62//2 70//2 90//2 87//2
f 87//5 90//5 91//5 88//5
f 66//3 89//3 92//3 67//3
f 70//2 72//2 93//2 90//2
f 90//5 93//5 94//5 91//5
f 67//3 92//3 95//3 75//3
f 96//6 78//6 97//6 98//6
f 72//2 78//2 96//2 93//2
f 93//5 96//5 98//5 94//5
f 99//6 100//6 101//6 102//6
f 103//2 100//2 99//2 104//2
f 103//3 105//3 101//3 100//3
f 106//6 99//6 102//6 107//6
f 104//2 99//2 106//2 108//2
f 108//5 106//5 107//5 109//5
f 110//3 111//3 112//3 113//3
f 114//5 115//5 116//5 117//5
f 113//3 112//3 118//3 119//3
f 115//5 120//5 121//5 116//5
f 119//3 118//3 122//3 123//3
f 120//5 124//5 125//5 121//5
f 123//3 122//3 126//3 127//3
f 124//5 128//5 129//5 125//5
f 127//3 126//3 130//3 131//3
f 128//5 132//5 133//5 129//5
f 102//6 101//6 134//6 135//6
f 105//3 136//3 134//3 101//3
f 107//6 102//6 135//6 137//6
f 138//6 107//6 137//6 139//6
f 109//2 107//2 138//2 140//2
f 141//4 139//4 137//4 142//4
f 140//5 138//5 139//5 141//5
f 143//3 144//3 145//3 146//3
f 147//1 148//1 149//1 150//1
f 148//5 151//5 152//5 149//5
f 146//3 145//3 153//3 154//3
f 151//5 155//5 156//5 152//5
f 154//3 153//3 157//3 158//3
f 155//5 159//5 160//5 156//5
f 158//3 157//3 161//3 162//3
f 159//5 163//5 164//5 160//5
f 162//3 161//3 165//3 166//3
f 167//6 168//6 169//6 170//6
f 163//5 167//5 170//5 164//5
f 171//6 172//6 173//6 174//6
f 166//3 165//3 173//3 172//3
f 175//6 171//6 174//6 176//6
f 168//5 175//5 176//5 169//5
f 144//3 177//3 178//3 145//3
f 150//1 149//1 179//1 180//1
f 149//5 152//5 181//5 179//5
f 145//3 178//3 182//3 153//3
f 152//5 156//5 183//5 181//5
f 153//3 182//3 184//3 157//3
f 156//5 160//5 185//5 183//5
f 157//3 184//3 186//3 161//3
f 160//5 164//5 187//5 185//5
f 161//3 186//3 188//3 165//3
f 170//6 169//6 189//6 190//6
f 164//5 170//5 190//5 187//5
f 174//6 173//6 191//6 192//6
f 193//4 192//4 191//4 188//4
f 165//3 188//3 191//3 173//3
f 176//6 174//6 192//6 194//6
f 169//5 176//5 194//5 189//5
f 195//1 196//1 197//1 198//1
f 197//4 199//4 200//4 198//4
f 196//5 180//5 199//5 197//5
f 195//3 198//3 200//3 201//3
f 202//1 203//1 204//1 205//1
f 202//2 206//2 207//2 203//2
f 203//5 207//5 208//5 204//5
f 202//3 205//3 209//3 206//3
f 205//1 204//1 210//1 211//1
f 210//4 212//4 213//4 211//4
f 204//5 208//5 212//5 210//5
f 205//3 211//3 213//3 209//3
f 177//1 201//1 200//1 214//1
f 177//3 214//3 215//3 178//3
f 180//1 179//1 216//1 199//1
f 179//5 181//5 217//5 216//5
f 178//3 215//3 218//3 182//3
f 181//5 183//5 219//5 217//5
f 182//3 218//3 220//3 184//3
f 183//5 185//5 221//5 219//5
f 184//3 220//3 222//3 186//3
f 185//5 187//5 223//5 221//5
f 193//6 188//6 224//6 225//6
f 186//3 222//3 224//3 188//3
f 190//6 189//6 226//6 227//6
f 187//5 190//5 227//5 223//5
f 194//6 192//6 228//6 229//6
f 226//4 229//4 228//4 225//4
f 189//5 194//5 229//5 226//5
f 193//3 225//3 228//3 192//3
f 230//1 231//1 207//1 206//1
f 230//3 206//3 232//3 233//3
f 231//1 234//1 235//1 207//1
f 234//1 236//1 237//1 235//1
f 236//5 238//5 239//5 237//5
f 240//1 241//1 242//1 243//1
f 240//2 244//2 245//2 241//2
f 240//3 243//3 246//3 244//3
f 238//1 247//1 248//1 239//1
f 238//2 249//2 250//2 247//2
f 247//5 250//5 251//5 248//5
f 244//2 252//2 253//2 245//2
f 244//3 246//3 254//3 252//3
f 249//2 255//2 256//2 250//2
f 250//5 256//5 257//5 251//5
f 258//6 259//6 260//6 261//6
f 252//2 259//2 258//2 253//2
f 252//3 254//3 260//3 259//3
f 262//6 263//6 264//6 265//6
f 255//2 263//2 262//2 256//2
f 256//5 262//5 265//5 257//5
f 266//6 267//6 268//6 269//6
f 270//3 271//3 268//3 267//3
f 272//6 266//6 269//6 273//6
f 274//6 272//6 273//6 275//6
f 263//5 274//5 275//5 264//5
f 276//1 277//1 278//1 279//1
f 276//2 243//2 242//2 277//2
f 276//3 279//3 280//3 243//3
f 207//1 235//1 281//1 208//1
f 235//1 237//1 282//1 281//1
f 237//1 283//1 284//1 282//1
f 237//2 239//2 248//2 283//2
f 283//5 248//5 285//5 284//5
f 243//3 280//3 286//3 246//3
f 248//5 251//5 287//5 285//5
f 246//3 286//3 288//3 254//3
f 251//1 289//1 290//1 287//1
f 291//6 257//6 292//6 293//6
f 251//2 257//2 291//2 289//2
f 290//4 293//4 292//4 287//4
f 289//5 291//5 293//5 290//5
f 254//3 288//3 294//3 260//3
f 257//5 265//5 295//5 292//5
f 296//6 297//6 298//6 299//6
f 260//2 297//2 296//2 261//2
f 260//3 294//3 298//3 297//3
f 273//6 269//6 300//6 301//6
f 275//6 273//6 301//6 302//6
f 303//6 275//6 302//6 304//6
f 264//2 275//2 303//2 265//2
f 265//5 303//5 304//5 295//5
f 305//6 306//6 307//6 308//6
f 268//2 306//2 305//2 269//2
f 269//5 305//5 308//5 300//5
f 268//3 309//3 307//3 306//3
f 279//1 278//1 310//1 311//1
f 279//3 311//3 312//3 280//3
f 313//1 314//1 315//1 316//1
f 281//1 282//1 317//1 318//1
f 282//1 284//1 319//1 317//1
f 284//5 285//5 320//5 319//5
f 280//3 312//3 321//3 286//3
f 322//5 323//5 324//5 325//5
f 286//3 321//3 326//3 288//3
f 287//5 292//5 327//5 328//5
f 288//3 326//3 329//3 294//3
f 330//5 331//5 332//5 333//5
f 299//6 298//6 334//6 335//6
f 294//3 329//3 334//3 298//3
f 336//6 337//6 338//6 339//6
f 302//6 301//6 340//6 341//6
f 304//6 302//6 341//6 342//6
f 295//5 304//5 342//5 343//5
f 308//6 307//6 344//6 345//6
f 346//4 345//4 344//4 347//4
f 300//5 308//5 345//5 346//5
f 309//3 347//3 344//3 307//3
f 311//1 310//1 348//1 349//1
f 348//4 350//4 351//4 349//4
f 311//3 349//3 351//3 312//3
f 310//1 316//1 352//1 348//1
f 316//1 315//1 353//1 352//1
f 315//1 354//1 355//1 353//1
f 317//1 319//1 356//1 357//1
f 319//5 320//5 358//5 356//5
f 312//3 351//3 359//3 321//3
f 325//5 324//5 360//5 361//5
f 321//3 359//3 362//3 326//3
f 328//5 327//5 363//5 364//5
f 326//3 362//3 365//3 329//3
f 333//5 332//5 366//5 367//5
f 335//6 334//6 368//6 369//6
f 370//4 369//4 368//4 365//4
f 329//3 365//3 368//3 334//3
f 338//6 335//6 369//6 371//6
f 339//6 338//6 371//6 372//6
f 373//6 339//6 372//6 374//6
f 342//6 341//6 375//6 376//6
f 377//4 376//4 375//4 378//4
f 343//5 342//5 376//5 377//5
f 348//1 352//1 379//1 380//1
f 379//4 381//4 382//4 380//4
f 348//3 380//3 382//3 350//3
f 352//1 353//1 383//1 379//1
f 383//4 384//4 381//4 379//4
f 353//1 355//1 385//1 383//1
f 355//1 386//1 387//1 385//1
f 386//1 388//1 389//1 387//1
f 390//6 391//6 392//6 393//6
f 386//2 391//2 390//2 388//2
f 388//5 390//5 393//5 389//5
f 351//1 350//1 382//1 394//1
f 382//4 395//4 396//4 394//4
f 351//3 394//3 396//3 359//3
f 381//4 397//4 395//4 382//4
f 358//5 364//5 398//5 399//5
f 395//4 400//4 401//4 396//4
f 359//3 396//3 401//3 362//3
f 402//5 403//5 404//5 405//5
f 370//6 365//6 406//6 407//6
f 400//4 407//4 406//4 401//4
f 362//3 401//3 406//3 365//3
f 408//4 409//4 407//4 400//4
f 410//4 411//4 412//4 413//4
f 414//6 415//6 411//6 416//6
f 404//4 416//4 411//4 410//4
f 403//5 414//5 416//5 404//5
f 371//6 369//6 417//6 418//6
f 409//4 418//4 417//4 407//4
f 370//3 407//3 417//3 369//3
f 372//6 371//6 418//6 419//6
f 412//4 419//4 418//4 409//4
f 374//6 372//6 419//6 420//6
f 411//4 420//4 419//4 412//4
f 415//5 374//5 420//5 411//5
f 383//1 385//1 421//1 422//1
f 421//4 423//4 424//4 422//4
f 383//3 422//3 424//3 384//3
f 385//1 387//1 425//1 421//1
f 425//4 426//4 423//4 421//4
f 387//1 389//1 427//1 425//1
f 393//6 392//6 426//6 428//6
f 427//4 428//4 426//4 425//4
f 389//5 393//5 428//5 427//5
f 381//1 384//1 424//1 429//1
f 424//4 430//4 431//4 429//4
f 381//3 429//3 431//3 397//3
f 423//4 432//4 430//4 424//4
f 426//4 433//4 432//4 423//4
f 392//5 405//5 433//5 426//5
f 395//1 397//1 431//1 434//1
f 408//6 400//6 435//6 436//6
f 431//4 436//4 435//4 434//4
f 395//3 434//3 435//3 400//3
f 430//4 437//4 436//4 431//4
f 410//6 413//6 437//6 438//6
f 432//4 438//4 437//4 430//4
f 404//6 410//6 438//6 439//6
f 433//4 439//4 438//4 432//4
f 405//5 404//5 439//5 433//5
f 412//6 409//6 440//6 441//6
f 437//4 441//4 440//4 436//4
f 413//5 412//5 441//5 437//5
f 408//3 436//3 440//3 409//3
f 442//1 443//1 444//1 445//1
f 442//2 446//2 447//2 443//2
f 442//3 445//3 448//3 446//3
f 443//1 449//1 450//1 444//1
f 443//2 447//2 451//2 449//2
f 449//5 451//5 452//5 450//5
f 445//1 444//1 453//1 454//1
f 445//3 454//3 455//3 448//3
f 444//1 450//1 456//1 453//1
f 450//1 457//1 458//1 456//1
f 450//2 452//2 459//2 457//2
f 458//4 460//4 461//4 456//4
f 457//5 459//5 460//5 458//5
f 462//1 463//1 464//1 465//1
f 462//3 465//3 144//3 143//3
f 463//1 466//1 467//1 464//1
f 466//5 147//5 150//5 467//5
f 465//1 464//1 195//1 468//1
f 195//4 201//4 177//4 468//4
f 465//3 468//3 177//3 144//3
f 464//1 467//1 196//1 195//1
f 467//5 150//5 180//5 196//5
