# Goxel 0.14.0
v -4 16 1 0.415686 0.745098 0.188235
v -3 16 1 0.415686 0.745098 0.188235
v -3 17 1 0.415686 0.745098 0.188235
v -4 17 1 0.415686 0.745098 0.188235
v -3 16 0 0.415686 0.745098 0.188235
v -4 16 0 0.415686 0.745098 0.188235
v -4 17 0 0.415686 0.745098 0.188235
v -3 17 0 0.415686 0.745098 0.188235
v -5 14 1 0.415686 0.745098 0.188235
v -4 14 1 0.415686 0.745098 0.188235
v -4 15 1 0.415686 0.745098 0.188235
v -5 15 1 0.415686 0.745098 0.188235
v -4 14 0 0.415686 0.745098 0.188235
v -5 14 0 0.415686 0.745098 0.188235
v -5 15 0 0.415686 0.745098 0.188235
v -4 15 0 0.415686 0.745098 0.188235
v -3 14 1 0.415686 0.745098 0.188235
v -3 15 1 0.415686 0.745098 0.188235
v -3 14 0 0.415686 0.745098 0.188235
v -3 15 0 0.415686 0.745098 0.188235
v -5 16 1 0.415686 0.745098 0.188235
v -5 16 0 0.415686 0.745098 0.188235
vn 0 0 1
vn 0 0 -1
vn 0 1 0
vn 1 0 0
vn -1 0 0
vn 0 -1 -0
f 1//1 2//1 3//1 4//1
f 5//2 6//2 7//2 8//2
f 3//3 8//3 7//3 4//3
f 2//4 5//4 8//4 3//4
f 1//5 4//5 7//5 6//5
f 9//1 10//1 11//1 12//1
f 13//2 14//2 15//2 16//2
f 9//6 14//6 13//6 10//6
f 9//5 12//5 15//5 14//5
f 10//1 17//1 18//1 11//1
f 19//2 13//2 16//2 20//2
f 10//6 13//6 19//6 17//6
f 17//4 19//4 20//4 18//4
f 12//1 11//1 1//1 21//1
f 16//2 15//2 22//2 6//2
f 1//3 6//3 22//3 21//3
f 12//5 21//5 22//5 15//5
f 11//1 18//1 2//1 1//1
f 20//2 16//2 6//2 5//2
f 18//4 20//4 5//4 2//4
