# Goxel 0.14.0
v -5 18 1 0.933333 0.764706 0.603922
v -4 18 1 0.933333 0.764706 0.603922
v -4 19 1 0.933333 0.764706 0.603922
v -5 19 1 0.933333 0.764706 0.603922
v -5 18 0 0.933333 0.764706 0.603922
v -4 18 0 0.933333 0.764706 0.603922
v -4 19 0 0.933333 0.764706 0.603922
v -5 19 0 0.933333 0.764706 0.603922
v -4 20 1 0.933333 0.764706 0.603922
v -5 20 1 0.933333 0.764706 0.603922
v -4 20 0 0.933333 0.764706 0.603922
v -5 20 0 0.933333 0.764706 0.603922
v -5 17 0 0.933333 0.764706 0.603922
v -4 17 0 0.933333 0.764706 0.603922
v -5 17 -1 0.933333 0.764706 0.603922
v -4 17 -1 0.933333 0.764706 0.603922
v -5 18 -1 0.933333 0.764706 0.603922
v -3 17 0 0.933333 0.764706 0.603922
v -3 18 0 0.933333 0.764706 0.603922
v -3 17 -1 0.933333 0.764706 0.603922
v -2 17 0 0.933333 0.764706 0.603922
v -2 18 0 0.933333 0.764706 0.603922
v -2 17 -1 0.933333 0.764706 0.603922
v -2 18 -1 0.933333 0.764706 0.603922
v -6 17 -1 0.400000 0.223529 0.192157
v -5 17 -1 0.400000 0.223529 0.192157
v -5 18 -1 0.400000 0.223529 0.192157
v -6 18 -1 0.400000 0.223529 0.192157
v -6 17 -2 0.400000 0.223529 0.192157
v -5 17 -2 0.400000 0.223529 0.192157
v -6 18 -2 0.400000 0.223529 0.192157
v -5 17 -2 0.933333 0.764706 0.603922
v -4 17 -2 0.933333 0.764706 0.603922
v -3 17 -2 0.933333 0.764706 0.603922
v -2 17 -2 0.933333 0.764706 0.603922
v -1 17 -1 0.933333 0.764706 0.603922
v -1 18 -1 0.933333 0.764706 0.603922
v -1 17 -2 0.933333 0.764706 0.603922
v -1 18 -2 0.933333 0.764706 0.603922
v -6 17 -3 0.400000 0.223529 0.192157
v -5 17 -3 0.400000 0.223529 0.192157
v -6 18 -3 0.400000 0.223529 0.192157
v -5 17 -3 0.933333 0.764706 0.603922
v -4 17 -3 0.933333 0.764706 0.603922
v -3 17 -3 0.933333 0.764706 0.603922
v -2 17 -3 0.933333 0.764706 0.603922
v -1 17 -3 0.933333 0.764706 0.603922
v -1 18 -3 0.933333 0.764706 0.603922
v -5 17 -4 0.400000 0.223529 0.192157
v -6 17 -4 0.400000 0.223529 0.192157
v -6 18 -4 0.400000 0.223529 0.192157
v -5 18 -4 0.400000 0.223529 0.192157
v -5 17 -4 0.933333 0.764706 0.603922
v -4 17 -4 0.933333 0.764706 0.603922
v -3 17 -4 0.933333 0.764706 0.603922
v -2 17 -4 0.933333 0.764706 0.603922
v -1 17 -4 0.933333 0.764706 0.603922
v -2 18 -4 0.933333 0.764706 0.603922
v -1 18 -4 0.933333 0.764706 0.603922
v -4 17 -5 0.933333 0.764706 0.603922
v -5 17 -5 0.933333 0.764706 0.603922
v -5 18 -5 0.933333 0.764706 0.603922
v -4 18 -5 0.933333 0.764706 0.603922
v -5 18 -4 0.933333 0.764706 0.603922
v -3 17 -5 0.933333 0.764706 0.603922
v -3 18 -5 0.933333 0.764706 0.603922
v -2 17 -5 0.933333 0.764706 0.603922
v -2 18 -5 0.933333 0.764706 0.603922
v -6 18 0 0.400000 0.223529 0.192157
v -5 18 0 0.400000 0.223529 0.192157
v -5 19 0 0.400000 0.223529 0.192157
v -6 19 0 0.400000 0.223529 0.192157
v -6 19 -1 0.400000 0.223529 0.192157
v -3 19 0 0.933333 0.764706 0.603922
v -2 19 0 0.933333 0.764706 0.603922
v -1 18 0 0.933333 0.764706 0.603922
v -1 19 0 0.933333 0.764706 0.603922
v -1 19 -1 0.933333 0.764706 0.603922
v -6 19 -2 0.400000 0.223529 0.192157
v -1 19 -2 0.933333 0.764706 0.603922
v -6 19 -3 0.400000 0.223529 0.192157
v 0 18 -2 0.933333 0.764706 0.603922
v 0 19 -2 0.933333 0.764706 0.603922
v 0 18 -3 0.933333 0.764706 0.603922
v -1 19 -3 0.933333 0.764706 0.603922
v 0 19 -3 0.933333 0.764706 0.603922
v -6 19 -4 0.400000 0.223529 0.192157
v -1 19 -4 0.933333 0.764706 0.603922
v -5 18 -5 0.400000 0.223529 0.192157
v -6 18 -5 0.400000 0.223529 0.192157
v -6 19 -5 0.400000 0.223529 0.192157
v -5 19 -5 0.400000 0.223529 0.192157
v -4 19 -5 0.933333 0.764706 0.603922
v -3 19 -5 0.933333 0.764706 0.603922
v -2 19 -5 0.933333 0.764706 0.603922
v -1 18 -5 0.933333 0.764706 0.603922
v -1 19 -5 0.933333 0.764706 0.603922
v -4 18 -6 0.933333 0.764706 0.603922
v -5 18 -6 0.933333 0.764706 0.603922
v -5 19 -6 0.933333 0.764706 0.603922
v -4 19 -6 0.933333 0.764706 0.603922
v -5 19 -5 0.933333 0.764706 0.603922
v -5 20 0 0.400000 0.223529 0.192157
v -6 20 0 0.400000 0.223529 0.192157
v -6 20 -1 0.400000 0.223529 0.192157
v -4 19 0 0.400000 0.223529 0.192157
v -3 19 0 0.400000 0.223529 0.192157
v -3 20 0 0.400000 0.223529 0.192157
v -4 20 0 0.400000 0.223529 0.192157
v -2 20 0 0.933333 0.764706 0.603922
v -3 20 0 0.933333 0.764706 0.603922
v -1 20 0 0.933333 0.764706 0.603922
v -1 20 -1 0.933333 0.764706 0.603922
v -6 20 -2 0.400000 0.223529 0.192157
v -1 19 -1 0.000000 0.000000 0.000000
v -1 19 -2 0.000000 0.000000 0.000000
v -1 20 -2 0.000000 0.000000 0.000000
v -1 20 -1 0.000000 0.000000 0.000000
v -6 20 -3 0.400000 0.223529 0.192157
v -1 20 -3 0.933333 0.764706 0.603922
v -1 20 -2 0.933333 0.764706 0.603922
v -6 20 -4 0.400000 0.223529 0.192157
v -1 19 -3 0.000000 0.000000 0.000000
v -1 19 -4 0.000000 0.000000 0.000000
v -1 20 -4 0.000000 0.000000 0.000000
v -1 20 -3 0.000000 0.000000 0.000000
v -6 20 -5 0.400000 0.223529 0.192157
v -5 20 -5 0.400000 0.223529 0.192157
v -3 19 -5 0.400000 0.223529 0.192157
v -4 19 -5 0.400000 0.223529 0.192157
v -4 20 -5 0.400000 0.223529 0.192157
v -3 20 -5 0.400000 0.223529 0.192157
v -3 20 -5 0.933333 0.764706 0.603922
v -2 20 -5 0.933333 0.764706 0.603922
v -1 20 -5 0.933333 0.764706 0.603922
v -1 20 -4 0.933333 0.764706 0.603922
v -5 20 -6 0.933333 0.764706 0.603922
v -4 20 -6 0.933333 0.764706 0.603922
v -4 20 -5 0.933333 0.764706 0.603922
v -5 20 -5 0.933333 0.764706 0.603922
v -5 21 0 0.400000 0.223529 0.192157
v -6 21 0 0.400000 0.223529 0.192157
v -5 21 -1 0.400000 0.223529 0.192157
v -6 21 -1 0.400000 0.223529 0.192157
v -4 21 0 0.400000 0.223529 0.192157
v -3 21 0 0.400000 0.223529 0.192157
v -2 20 0 0.400000 0.223529 0.192157
v -2 21 0 0.400000 0.223529 0.192157
v -1 21 0 0.933333 0.764706 0.603922
v -2 21 0 0.933333 0.764706 0.603922
v -1 21 -1 0.933333 0.764706 0.603922
v -6 21 -2 0.400000 0.223529 0.192157
v -1 21 -2 0.000000 0.000000 0.000000
v -1 21 -1 0.000000 0.000000 0.000000
v -6 21 -3 0.400000 0.223529 0.192157
v -1 21 -3 0.933333 0.764706 0.603922
v -1 21 -2 0.933333 0.764706 0.603922
v -6 21 -4 0.400000 0.223529 0.192157
v -1 21 -4 0.000000 0.000000 0.000000
v -1 21 -3 0.000000 0.000000 0.000000
v -6 21 -5 0.400000 0.223529 0.192157
v -5 21 -5 0.400000 0.223529 0.192157
v -5 21 -4 0.400000 0.223529 0.192157
v -4 21 -5 0.400000 0.223529 0.192157
v -3 21 -5 0.400000 0.223529 0.192157
v -2 20 -5 0.400000 0.223529 0.192157
v -2 21 -5 0.400000 0.223529 0.192157
v -2 21 -5 0.933333 0.764706 0.603922
v -1 21 -5 0.933333 0.764706 0.603922
v -1 21 -4 0.933333 0.764706 0.603922
v -2 21 -4 0.933333 0.764706 0.603922
v -4 22 0 0.400000 0.223529 0.192157
v -5 22 0 0.400000 0.223529 0.192157
v -4 22 -1 0.400000 0.223529 0.192157
v -5 22 -1 0.400000 0.223529 0.192157
v -3 22 0 0.400000 0.223529 0.192157
v -3 22 -1 0.400000 0.223529 0.192157
v -2 22 0 0.400000 0.223529 0.192157
v -1 21 0 0.400000 0.223529 0.192157
v -1 22 0 0.400000 0.223529 0.192157
v 0 21 0 0.400000 0.223529 0.192157
v 0 22 0 0.400000 0.223529 0.192157
v 0 21 -1 0.400000 0.223529 0.192157
v -1 21 -1 0.400000 0.223529 0.192157
v -1 22 -1 0.400000 0.223529 0.192157
v 0 22 -1 0.400000 0.223529 0.192157
v -6 22 -1 0.400000 0.223529 0.192157
v -5 22 -2 0.400000 0.223529 0.192157
v -6 22 -2 0.400000 0.223529 0.192157
v -4 22 -2 0.400000 0.223529 0.192157
v -1 22 -2 0.933333 0.764706 0.603922
v -1 22 -1 0.933333 0.764706 0.603922
v -5 22 -3 0.400000 0.223529 0.192157
v -6 22 -3 0.400000 0.223529 0.192157
v -1 21 -2 0.400000 0.223529 0.192157
v -1 21 -3 0.400000 0.223529 0.192157
v -1 22 -3 0.400000 0.223529 0.192157
v -1 22 -2 0.400000 0.223529 0.192157
v -6 22 -4 0.400000 0.223529 0.192157
v -5 22 -4 0.400000 0.223529 0.192157
v -4 22 -3 0.400000 0.223529 0.192157
v -4 22 -4 0.400000 0.223529 0.192157
v -2 22 -3 0.400000 0.223529 0.192157
v -2 22 -4 0.400000 0.223529 0.192157
v -3 22 -4 0.400000 0.223529 0.192157
v -3 22 -3 0.400000 0.223529 0.192157
v -1 21 -4 0.400000 0.223529 0.192157
v -2 21 -4 0.400000 0.223529 0.192157
v -1 22 -4 0.400000 0.223529 0.192157
v -5 22 -5 0.400000 0.223529 0.192157
v -4 22 -5 0.400000 0.223529 0.192157
v -3 22 -5 0.400000 0.223529 0.192157
v -2 22 -5 0.400000 0.223529 0.192157
v -2 23 0 0.400000 0.223529 0.192157
v -3 23 0 0.400000 0.223529 0.192157
v -2 23 -1 0.400000 0.223529 0.192157
v -3 23 -1 0.400000 0.223529 0.192157
v -1 23 0 0.400000 0.223529 0.192157
v -1 23 -1 0.400000 0.223529 0.192157
v 0 23 0 0.400000 0.223529 0.192157
v 0 23 -1 0.400000 0.223529 0.192157
v -4 23 -1 0.400000 0.223529 0.192157
v -3 23 -2 0.400000 0.223529 0.192157
v -4 23 -2 0.400000 0.223529 0.192157
v -2 23 -2 0.400000 0.223529 0.192157
v -1 23 -2 0.400000 0.223529 0.192157
v -5 23 -2 0.400000 0.223529 0.192157
v -5 23 -3 0.400000 0.223529 0.192157
v -4 23 -3 0.400000 0.223529 0.192157
v -3 23 -3 0.400000 0.223529 0.192157
v -2 23 -3 0.400000 0.223529 0.192157
v -1 23 -3 0.400000 0.223529 0.192157
v -4 23 -4 0.400000 0.223529 0.192157
v -3 23 -4 0.400000 0.223529 0.192157
vn 0 0 1
vn 0 -1 -0
vn 1 0 0
vn -1 0 0
vn 0 1 0
vn 0 0 -1
f 1//1 2//1 3//1 4//1
f 1//2 5//2 6//2 2//2
f 2//3 6//3 7//3 3//3
f 1//4 4//4 8//4 5//4
f 4//1 3//1 9//1 10//1
f 9//5 11//5 12//5 10//5
f 3//3 7//3 11//3 9//3
f 4//4 10//4 12//4 8//4
f 13//1 14//1 6//1 5//1
f 13//2 15//2 16//2 14//2
f 13//4 5//4 17//4 15//4
f 14//1 18//1 19//1 6//1
f 14//2 16//2 20//2 18//2
f 18//1 21//1 22//1 19//1
f 18//2 20//2 23//2 21//2
f 21//3 23//3 24//3 22//3
f 25//1 26//1 27//1 28//1
f 25//2 29//2 30//2 26//2
f 25//4 28//4 31//4 29//4
f 15//2 32//2 33//2 16//2
f 16//2 33//2 34//2 20//2
f 20//2 34//2 35//2 23//2
f 23//1 36//1 37//1 24//1
f 23//2 35//2 38//2 36//2
f 36//3 38//3 39//3 37//3
f 29//2 40//2 41//2 30//2
f 29//4 31//4 42//4 40//4
f 32//2 43//2 44//2 33//2
f 33//2 44//2 45//2 34//2
f 34//2 45//2 46//2 35//2
f 35//2 46//2 47//2 38//2
f 38//3 47//3 48//3 39//3
f 49//6 50//6 51//6 52//6
f 40//2 50//2 49//2 41//2
f 40//4 42//4 51//4 50//4
f 43//2 53//2 54//2 44//2
f 44//2 54//2 55//2 45//2
f 45//2 55//2 56//2 46//2
f 57//6 56//6 58//6 59//6
f 46//2 56//2 57//2 47//2
f 47//3 57//3 59//3 48//3
f 60//6 61//6 62//6 63//6
f 53//2 61//2 60//2 54//2
f 53//4 64//4 62//4 61//4
f 65//6 60//6 63//6 66//6
f 54//2 60//2 65//2 55//2
f 67//6 65//6 66//6 68//6
f 55//2 65//2 67//2 56//2
f 56//3 67//3 68//3 58//3
f 69//1 70//1 71//1 72//1
f 69//2 28//2 27//2 70//2
f 69//4 72//4 73//4 28//4
f 6//1 19//1 74//1 7//1
f 19//1 22//1 75//1 74//1
f 22//1 76//1 77//1 75//1
f 22//2 24//2 37//2 76//2
f 76//3 37//3 78//3 77//3
f 28//4 73//4 79//4 31//4
f 37//3 39//3 80//3 78//3
f 31//4 79//4 81//4 42//4
f 39//1 82//1 83//1 80//1
f 84//6 48//6 85//6 86//6
f 39//2 48//2 84//2 82//2
f 83//5 86//5 85//5 80//5
f 82//3 84//3 86//3 83//3
f 42//4 81//4 87//4 51//4
f 48//3 59//3 88//3 85//3
f 89//6 90//6 91//6 92//6
f 51//2 90//2 89//2 52//2
f 51//4 87//4 91//4 90//4
f 66//6 63//6 93//6 94//6
f 68//6 66//6 94//6 95//6
f 96//6 68//6 95//6 97//6
f 58//2 68//2 96//2 59//2
f 59//3 96//3 97//3 88//3
f 98//6 99//6 100//6 101//6
f 62//2 99//2 98//2 63//2
f 63//3 98//3 101//3 93//3
f 62//4 102//4 100//4 99//4
f 72//1 71//1 103//1 104//1
f 72//4 104//4 105//4 73//4
f 106//1 107//1 108//1 109//1
f 74//1 75//1 110//1 111//1
f 75//1 77//1 112//1 110//1
f 77//3 78//3 113//3 112//3
f 73//4 105//4 114//4 79//4
f 115//3 116//3 117//3 118//3
f 79//4 114//4 119//4 81//4
f 80//3 85//3 120//3 121//3
f 81//4 119//4 122//4 87//4
f 123//3 124//3 125//3 126//3
f 92//6 91//6 127//6 128//6
f 87//4 122//4 127//4 91//4
f 129//6 130//6 131//6 132//6
f 95//6 94//6 133//6 134//6
f 97//6 95//6 134//6 135//6
f 88//3 97//3 135//3 136//3
f 101//6 100//6 137//6 138//6
f 139//5 138//5 137//5 140//5
f 93//3 101//3 138//3 139//3
f 102//4 140//4 137//4 100//4
f 104//1 103//1 141//1 142//1
f 141//5 143//5 144//5 142//5
f 104//4 142//4 144//4 105//4
f 103//1 109//1 145//1 141//1
f 109//1 108//1 146//1 145//1
f 108//1 147//1 148//1 146//1
f 110//1 112//1 149//1 150//1
f 112//3 113//3 151//3 149//3
f 105//4 144//4 152//4 114//4
f 118//3 117//3 153//3 154//3
f 114//4 152//4 155//4 119//4
f 121//3 120//3 156//3 157//3
f 119//4 155//4 158//4 122//4
f 126//3 125//3 159//3 160//3
f 128//6 127//6 161//6 162//6
f 163//5 162//5 161//5 158//5
f 122//4 158//4 161//4 127//4
f 131//6 128//6 162//6 164//6
f 132//6 131//6 164//6 165//6
f 166//6 132//6 165//6 167//6
f 135//6 134//6 168//6 169//6
f 170//5 169//5 168//5 171//5
f 136//3 135//3 169//3 170//3
f 141//1 145//1 172//1 173//1
f 172//5 174//5 175//5 173//5
f 141//4 173//4 175//4 143//4
f 145//1 146//1 176//1 172//1
f 176//5 177//5 174//5 172//5
f 146//1 148//1 178//1 176//1
f 148//1 179//1 180//1 178//1
f 179//1 181//1 182//1 180//1
f 183//6 184//6 185//6 186//6
f 179//2 184//2 183//2 181//2
f 181//3 183//3 186//3 182//3
f 144//1 143//1 175//1 187//1
f 175//5 188//5 189//5 187//5
f 144//4 187//4 189//4 152//4
f 174//5 190//5 188//5 175//5
f 151//3 157//3 191//3 192//3
f 188//5 193//5 194//5 189//5
f 152//4 189//4 194//4 155//4
f 195//3 196//3 197//3 198//3
f 163//6 158//6 199//6 200//6
f 193//5 200//5 199//5 194//5
f 155//4 194//4 199//4 158//4
f 201//5 202//5 200//5 193//5
f 203//5 204//5 205//5 206//5
f 207//6 208//6 204//6 209//6
f 197//5 209//5 204//5 203//5
f 196//3 207//3 209//3 197//3
f 164//6 162//6 210//6 211//6
f 202//5 211//5 210//5 200//5
f 163//4 200//4 210//4 162//4
f 165//6 164//6 211//6 212//6
f 205//5 212//5 211//5 202//5
f 167//6 165//6 212//6 213//6
f 204//5 213//5 212//5 205//5
f 208//3 167//3 213//3 204//3
f 176//1 178//1 214//1 215//1
f 214//5 216//5 217//5 215//5
f 176//4 215//4 217//4 177//4
f 178//1 180//1 218//1 214//1
f 218//5 219//5 216//5 214//5
f 180//1 182//1 220//1 218//1
f 186//6 185//6 219//6 221//6
f 220//5 221//5 219//5 218//5
f 182//3 186//3 221//3 220//3
f 174//1 177//1 217//1 222//1
f 217//5 223//5 224//5 222//5
f 174//4 222//4 224//4 190//4
f 216//5 225//5 223//5 217//5
f 219//5 226//5 225//5 216//5
f 185//3 198//3 226//3 219//3
f 188//1 190//1 224//1 227//1
f 201//6 193//6 228//6 229//6
f 224//5 229//5 228//5 227//5
f 188//4 227//4 228//4 193//4
f 223//5 230//5 229//5 224//5
f 203//6 206//6 230//6 231//6
f 225//5 231//5 230//5 223//5
f 197//6 203//6 231//6 232//6
f 226//5 232//5 231//5 225//5
f 198//3 197//3 232//3 226//3
f 205//6 202//6 233//6 234//6
f 230//5 234//5 233//5 229//5
f 206//3 205//3 234//3 230//3
f 201//4 229//4 233//4 202//4
