# Goxel 0.14.0
v -3 1 -2 1.000000 1.000000 1.000000
v -2 1 -2 1.000000 1.000000 1.000000
v -2 2 -2 1.000000 1.000000 1.000000
v -3 2 -2 1.000000 1.000000 1.000000
v -3 1 -3 1.000000 1.000000 1.000000
v -2 1 -3 1.000000 1.000000 1.000000
v -2 2 -3 1.000000 1.000000 1.000000
v -3 2 -3 1.000000 1.000000 1.000000
v -2 1 -4 1.000000 1.000000 1.000000
v -3 1 -4 1.000000 1.000000 1.000000
v -3 2 -4 1.000000 1.000000 1.000000
v -2 2 -4 1.000000 1.000000 1.000000
vn 0 0 1
vn 0 -1 -0
vn 0 1 0
vn 1 0 0
vn -1 0 0
vn 0 0 -1
f 1//1 2//1 3//1 4//1
f 1//2 5//2 6//2 2//2
f 3//3 7//3 8//3 4//3
f 2//4 6//4 7//4 3//4
f 1//5 4//5 8//5 5//5
f 9//6 10//6 11//6 12//6
f 5//2 10//2 9//2 6//2
f 7//3 12//3 11//3 8//3
f 6//4 9//4 12//4 7//4
f 5//5 8//5 11//5 10//5
