# Goxel 0.14.0
v -5 0 3 0.400000 0.223529 0.192157
v -4 0 3 0.400000 0.223529 0.192157
v -4 1 3 0.400000 0.223529 0.192157
v -5 1 3 0.400000 0.223529 0.192157
v -5 0 2 0.400000 0.223529 0.192157
v -4 0 2 0.400000 0.223529 0.192157
v -5 1 2 0.400000 0.223529 0.192157
v -3 0 3 0.400000 0.223529 0.192157
v -3 1 3 0.400000 0.223529 0.192157
v -3 0 2 0.400000 0.223529 0.192157
v -2 0 3 0.400000 0.223529 0.192157
v -2 1 3 0.400000 0.223529 0.192157
v -2 0 2 0.400000 0.223529 0.192157
v -2 1 2 0.400000 0.223529 0.192157
v -3 1 2 0.400000 0.223529 0.192157
v -4 0 1 0.400000 0.223529 0.192157
v -5 0 1 0.400000 0.223529 0.192157
v -5 1 1 0.400000 0.223529 0.192157
v -4 1 1 0.400000 0.223529 0.192157
v -3 0 1 0.400000 0.223529 0.192157
v -3 1 1 0.400000 0.223529 0.192157
v -2 0 1 0.400000 0.223529 0.192157
v -2 1 1 0.400000 0.223529 0.192157
v -5 1 3 0.560784 0.337255 0.231373
v -4 1 3 0.560784 0.337255 0.231373
v -4 2 3 0.560784 0.337255 0.231373
v -5 2 3 0.560784 0.337255 0.231373
v -5 2 2 0.560784 0.337255 0.231373
v -5 1 2 0.560784 0.337255 0.231373
v -3 1 3 0.560784 0.337255 0.231373
v -3 2 3 0.560784 0.337255 0.231373
v -3 1 2 0.560784 0.337255 0.231373
v -3 2 2 0.560784 0.337255 0.231373
v -4 1 1 0.560784 0.337255 0.231373
v -5 1 1 0.560784 0.337255 0.231373
v -5 2 1 0.560784 0.337255 0.231373
v -4 2 1 0.560784 0.337255 0.231373
v -3 1 1 0.560784 0.337255 0.231373
v -3 2 1 0.560784 0.337255 0.231373
v -4 3 3 0.560784 0.337255 0.231373
v -5 3 3 0.560784 0.337255 0.231373
v -5 3 2 0.560784 0.337255 0.231373
v -3 3 3 0.560784 0.337255 0.231373
v -2 2 3 0.560784 0.337255 0.231373
v -2 3 3 0.560784 0.337255 0.231373
v -2 2 2 0.560784 0.337255 0.231373
v -2 3 2 0.560784 0.337255 0.231373
v -5 3 1 0.560784 0.337255 0.231373
v -2 2 1 0.560784 0.337255 0.231373
v -2 3 1 0.560784 0.337255 0.231373
v -5 2 0 0.560784 0.337255 0.231373
v -4 2 0 0.560784 0.337255 0.231373
v -5 3 0 0.560784 0.337255 0.231373
v -3 2 0 0.560784 0.337255 0.231373
v -2 2 0 0.560784 0.337255 0.231373
v -2 3 0 0.560784 0.337255 0.231373
v -5 3 3 0.400000 0.223529 0.192157
v -4 3 3 0.400000 0.223529 0.192157
v -4 4 3 0.400000 0.223529 0.192157
v -5 4 3 0.400000 0.223529 0.192157
v -5 4 2 0.400000 0.223529 0.192157
v -5 3 2 0.400000 0.223529 0.192157
v -3 3 3 0.400000 0.223529 0.192157
v -3 4 3 0.400000 0.223529 0.192157
v -2 3 3 0.400000 0.223529 0.192157
v -2 4 3 0.400000 0.223529 0.192157
v -2 3 2 0.400000 0.223529 0.192157
v -2 4 2 0.400000 0.223529 0.192157
v -5 4 1 0.400000 0.223529 0.192157
v -5 3 1 0.400000 0.223529 0.192157
v -2 3 1 0.400000 0.223529 0.192157
v -2 4 1 0.400000 0.223529 0.192157
v -5 4 0 0.400000 0.223529 0.192157
v -5 3 0 0.400000 0.223529 0.192157
v -2 3 0 0.400000 0.223529 0.192157
v -2 4 0 0.400000 0.223529 0.192157
v -5 4 3 0.415686 0.745098 0.188235
v -4 4 3 0.415686 0.745098 0.188235
v -4 5 3 0.415686 0.745098 0.188235
v -5 5 3 0.415686 0.745098 0.188235
v -5 5 2 0.415686 0.745098 0.188235
v -5 4 2 0.415686 0.745098 0.188235
v -3 4 3 0.415686 0.745098 0.188235
v -3 5 3 0.415686 0.745098 0.188235
v -2 4 3 0.415686 0.745098 0.188235
v -2 5 3 0.415686 0.745098 0.188235
v -2 4 2 0.415686 0.745098 0.188235
v -2 5 2 0.415686 0.745098 0.188235
v -5 5 1 0.415686 0.745098 0.188235
v -5 4 1 0.415686 0.745098 0.188235
v -2 4 1 0.415686 0.745098 0.188235
v -2 5 1 0.415686 0.745098 0.188235
v -5 5 0 0.415686 0.745098 0.188235
v -5 4 0 0.415686 0.745098 0.188235
v -2 4 0 0.415686 0.745098 0.188235
v -2 5 0 0.415686 0.745098 0.188235
v -4 6 3 0.415686 0.745098 0.188235
v -5 6 3 0.415686 0.745098 0.188235
v -5 6 2 0.415686 0.745098 0.188235
v -3 6 3 0.415686 0.745098 0.188235
v -2 6 3 0.415686 0.745098 0.188235
v -2 6 2 0.415686 0.745098 0.188235
v -5 6 1 0.415686 0.745098 0.188235
v -2 6 1 0.415686 0.745098 0.188235
v -5 6 0 0.415686 0.745098 0.188235
v -2 6 0 0.415686 0.745098 0.188235
v -5 6 8 0.933333 0.764706 0.603922
v -4 6 8 0.933333 0.764706 0.603922
v -4 7 8 0.933333 0.764706 0.603922
v -5 7 8 0.933333 0.764706 0.603922
v -5 6 7 0.933333 0.764706 0.603922
v -4 6 7 0.933333 0.764706 0.603922
v -4 7 7 0.933333 0.764706 0.603922
v -5 7 7 0.933333 0.764706 0.603922
v -3 6 8 0.933333 0.764706 0.603922
v -3 7 8 0.933333 0.764706 0.603922
v -3 6 7 0.933333 0.764706 0.603922
v -3 7 7 0.933333 0.764706 0.603922
v -5 6 6 0.933333 0.764706 0.603922
v -4 6 6 0.933333 0.764706 0.603922
v -4 7 6 0.933333 0.764706 0.603922
v -5 7 6 0.933333 0.764706 0.603922
v -3 6 6 0.933333 0.764706 0.603922
v -3 7 6 0.933333 0.764706 0.603922
v -2 6 7 0.933333 0.764706 0.603922
v -2 7 7 0.933333 0.764706 0.603922
v -2 6 6 0.933333 0.764706 0.603922
v -2 7 6 0.933333 0.764706 0.603922
v -5 6 6 0.415686 0.745098 0.188235
v -5 6 5 0.415686 0.745098 0.188235
v -4 6 5 0.415686 0.745098 0.188235
v -4 6 6 0.415686 0.745098 0.188235
v -4 7 6 0.415686 0.745098 0.188235
v -4 7 5 0.415686 0.745098 0.188235
v -5 7 5 0.415686 0.745098 0.188235
v -5 7 6 0.415686 0.745098 0.188235
v -3 6 5 0.415686 0.745098 0.188235
v -3 6 6 0.415686 0.745098 0.188235
v -3 7 6 0.415686 0.745098 0.188235
v -3 7 5 0.415686 0.745098 0.188235
v -5 6 4 0.415686 0.745098 0.188235
v -4 6 4 0.415686 0.745098 0.188235
v -4 7 4 0.415686 0.745098 0.188235
v -5 7 4 0.415686 0.745098 0.188235
v -3 6 4 0.415686 0.745098 0.188235
v -3 7 4 0.415686 0.745098 0.188235
v -4 7 3 0.415686 0.745098 0.188235
v -5 7 3 0.415686 0.745098 0.188235
v -3 7 3 0.415686 0.745098 0.188235
v -5 7 2 0.415686 0.745098 0.188235
v -2 7 3 0.415686 0.745098 0.188235
v -2 7 2 0.415686 0.745098 0.188235
v -5 7 1 0.415686 0.745098 0.188235
v -2 7 1 0.415686 0.745098 0.188235
v -5 7 0 0.415686 0.745098 0.188235
v -2 7 0 0.415686 0.745098 0.188235
v -5 7 3 0.933333 0.764706 0.603922
v -4 7 3 0.933333 0.764706 0.603922
v -4 8 3 0.933333 0.764706 0.603922
v -5 8 3 0.933333 0.764706 0.603922
v -5 8 2 0.933333 0.764706 0.603922
v -5 7 2 0.933333 0.764706 0.603922
v -3 7 3 0.933333 0.764706 0.603922
v -3 8 3 0.933333 0.764706 0.603922
v -2 7 3 0.933333 0.764706 0.603922
v -2 8 3 0.933333 0.764706 0.603922
v -2 7 2 0.933333 0.764706 0.603922
v -2 8 2 0.933333 0.764706 0.603922
v -6 7 2 0.400000 0.223529 0.192157
v -5 7 2 0.400000 0.223529 0.192157
v -5 8 2 0.400000 0.223529 0.192157
v -6 8 2 0.400000 0.223529 0.192157
v -6 7 1 0.400000 0.223529 0.192157
v -5 7 1 0.400000 0.223529 0.192157
v -6 8 1 0.400000 0.223529 0.192157
v -1 7 2 0.933333 0.764706 0.603922
v -1 8 2 0.933333 0.764706 0.603922
v -2 7 1 0.933333 0.764706 0.603922
v -1 7 1 0.933333 0.764706 0.603922
v -1 8 1 0.933333 0.764706 0.603922
v -6 7 0 0.400000 0.223529 0.192157
v -5 7 0 0.400000 0.223529 0.192157
v -6 8 0 0.400000 0.223529 0.192157
v -2 7 0 0.933333 0.764706 0.603922
v -1 7 0 0.933333 0.764706 0.603922
v -1 8 0 0.933333 0.764706 0.603922
v -5 8 4 0.933333 0.764706 0.603922
v -4 8 4 0.933333 0.764706 0.603922
v -4 9 4 0.933333 0.764706 0.603922
v -5 9 4 0.933333 0.764706 0.603922
v -4 9 3 0.933333 0.764706 0.603922
v -5 9 3 0.933333 0.764706 0.603922
v -6 8 3 0.400000 0.223529 0.192157
v -5 8 3 0.400000 0.223529 0.192157
v -5 9 3 0.400000 0.223529 0.192157
v -6 9 3 0.400000 0.223529 0.192157
v -6 9 2 0.400000 0.223529 0.192157
v -3 9 3 0.933333 0.764706 0.603922
v -2 9 3 0.933333 0.764706 0.603922
v -1 8 3 0.933333 0.764706 0.603922
v -1 9 3 0.933333 0.764706 0.603922
v -1 9 2 0.933333 0.764706 0.603922
v -6 9 1 0.400000 0.223529 0.192157
v -1 9 1 0.933333 0.764706 0.603922
v -6 9 0 0.400000 0.223529 0.192157
v 0 8 1 0.933333 0.764706 0.603922
v 0 9 1 0.933333 0.764706 0.603922
v 0 8 0 0.933333 0.764706 0.603922
v -1 9 0 0.933333 0.764706 0.603922
v 0 9 0 0.933333 0.764706 0.603922
v -4 10 4 0.933333 0.764706 0.603922
v -5 10 4 0.933333 0.764706 0.603922
v -4 10 3 0.933333 0.764706 0.603922
v -5 10 3 0.933333 0.764706 0.603922
v -5 10 3 0.400000 0.223529 0.192157
v -6 10 3 0.400000 0.223529 0.192157
v -6 10 2 0.400000 0.223529 0.192157
v -4 9 3 0.400000 0.223529 0.192157
v -3 9 3 0.400000 0.223529 0.192157
v -3 10 3 0.400000 0.223529 0.192157
v -4 10 3 0.400000 0.223529 0.192157
v -2 10 3 0.933333 0.764706 0.603922
v -3 10 3 0.933333 0.764706 0.603922
v -1 10 3 0.933333 0.764706 0.603922
v -1 10 2 0.933333 0.764706 0.603922
v -6 10 1 0.400000 0.223529 0.192157
v -1 9 2 0.000000 0.000000 0.000000
v -1 9 1 0.000000 0.000000 0.000000
v -1 10 1 0.000000 0.000000 0.000000
v -1 10 2 0.000000 0.000000 0.000000
v -6 10 0 0.400000 0.223529 0.192157
v -1 10 0 0.933333 0.764706 0.603922
v -1 10 1 0.933333 0.764706 0.603922
v -5 11 3 0.400000 0.223529 0.192157
v -6 11 3 0.400000 0.223529 0.192157
v -5 11 2 0.400000 0.223529 0.192157
v -6 11 2 0.400000 0.223529 0.192157
v -4 11 3 0.400000 0.223529 0.192157
v -3 11 3 0.400000 0.223529 0.192157
v -2 10 3 0.400000 0.223529 0.192157
v -2 11 3 0.400000 0.223529 0.192157
v -1 11 3 0.933333 0.764706 0.603922
v -2 11 3 0.933333 0.764706 0.603922
v -1 11 2 0.933333 0.764706 0.603922
v -6 11 1 0.400000 0.223529 0.192157
v -1 11 1 0.000000 0.000000 0.000000
v -1 11 2 0.000000 0.000000 0.000000
v -6 11 0 0.400000 0.223529 0.192157
v -1 11 0 0.933333 0.764706 0.603922
v -1 11 1 0.933333 0.764706 0.603922
v -4 12 3 0.400000 0.223529 0.192157
v -5 12 3 0.400000 0.223529 0.192157
v -4 12 2 0.400000 0.223529 0.192157
v -5 12 2 0.400000 0.223529 0.192157
v -3 12 3 0.400000 0.223529 0.192157
v -3 12 2 0.400000 0.223529 0.192157
v -2 12 3 0.400000 0.223529 0.192157
v -1 11 3 0.400000 0.223529 0.192157
v -1 12 3 0.400000 0.223529 0.192157
v 0 11 3 0.400000 0.223529 0.192157
v 0 12 3 0.400000 0.223529 0.192157
v 0 11 2 0.400000 0.223529 0.192157
v -1 11 2 0.400000 0.223529 0.192157
v -1 12 2 0.400000 0.223529 0.192157
v 0 12 2 0.400000 0.223529 0.192157
v -6 12 2 0.400000 0.223529 0.192157
v -5 12 1 0.400000 0.223529 0.192157
v -6 12 1 0.400000 0.223529 0.192157
v -4 12 1 0.400000 0.223529 0.192157
v -1 12 1 0.933333 0.764706 0.603922
v -1 12 2 0.933333 0.764706 0.603922
v -5 12 0 0.400000 0.223529 0.192157
v -6 12 0 0.400000 0.223529 0.192157
v -1 11 1 0.400000 0.223529 0.192157
v -1 11 0 0.400000 0.223529 0.192157
v -1 12 0 0.400000 0.223529 0.192157
v -1 12 1 0.400000 0.223529 0.192157
v -2 13 3 0.400000 0.223529 0.192157
v -3 13 3 0.400000 0.223529 0.192157
v -2 13 2 0.400000 0.223529 0.192157
v -3 13 2 0.400000 0.223529 0.192157
v -1 13 3 0.400000 0.223529 0.192157
v -1 13 2 0.400000 0.223529 0.192157
v 0 13 3 0.400000 0.223529 0.192157
v 0 13 2 0.400000 0.223529 0.192157
v -4 13 2 0.400000 0.223529 0.192157
v -3 13 1 0.400000 0.223529 0.192157
v -4 13 1 0.400000 0.223529 0.192157
v -2 13 1 0.400000 0.223529 0.192157
v -1 13 1 0.400000 0.223529 0.192157
v -5 13 1 0.400000 0.223529 0.192157
v -4 12 0 0.400000 0.223529 0.192157
v -5 13 0 0.400000 0.223529 0.192157
v -4 13 0 0.400000 0.223529 0.192157
v -3 13 0 0.400000 0.223529 0.192157
v -2 12 0 0.400000 0.223529 0.192157
v -3 12 0 0.400000 0.223529 0.192157
v -2 13 0 0.400000 0.223529 0.192157
v -1 13 0 0.400000 0.223529 0.192157
v -5 0 0 0.400000 0.223529 0.192157
v -4 0 0 0.400000 0.223529 0.192157
v -4 1 0 0.400000 0.223529 0.192157
v -5 1 0 0.400000 0.223529 0.192157
v -5 0 -1 0.400000 0.223529 0.192157
v -4 0 -1 0.400000 0.223529 0.192157
v -5 1 -1 0.400000 0.223529 0.192157
v -3 0 0 0.400000 0.223529 0.192157
v -3 1 0 0.400000 0.223529 0.192157
v -3 0 -1 0.400000 0.223529 0.192157
v -2 0 0 0.400000 0.223529 0.192157
v -2 1 0 0.400000 0.223529 0.192157
v -2 0 -1 0.400000 0.223529 0.192157
v -2 1 -1 0.400000 0.223529 0.192157
v -3 1 -1 0.400000 0.223529 0.192157
v -4 0 -2 0.400000 0.223529 0.192157
v -5 0 -2 0.400000 0.223529 0.192157
v -5 1 -2 0.400000 0.223529 0.192157
v -4 1 -2 0.400000 0.223529 0.192157
v -3 0 -2 0.400000 0.223529 0.192157
v -3 1 -2 0.400000 0.223529 0.192157
v -2 0 -2 0.400000 0.223529 0.192157
v -2 1 -2 0.400000 0.223529 0.192157
v -5 1 0 0.560784 0.337255 0.231373
v -4 1 0 0.560784 0.337255 0.231373
v -5 2 -1 0.560784 0.337255 0.231373
v -5 1 -1 0.560784 0.337255 0.231373
v -3 1 0 0.560784 0.337255 0.231373
v -3 1 -1 0.560784 0.337255 0.231373
v -3 2 -1 0.560784 0.337255 0.231373
v -4 1 -2 0.560784 0.337255 0.231373
v -5 1 -2 0.560784 0.337255 0.231373
v -5 2 -2 0.560784 0.337255 0.231373
v -4 2 -2 0.560784 0.337255 0.231373
v -3 1 -2 0.560784 0.337255 0.231373
v -3 2 -2 0.560784 0.337255 0.231373
v -5 3 -1 0.560784 0.337255 0.231373
v -2 2 -1 0.560784 0.337255 0.231373
v -2 3 -1 0.560784 0.337255 0.231373
v -5 3 -2 0.560784 0.337255 0.231373
v -4 3 -2 0.560784 0.337255 0.231373
v -3 3 -2 0.560784 0.337255 0.231373
v -2 2 -2 0.560784 0.337255 0.231373
v -2 3 -2 0.560784 0.337255 0.231373
v -5 4 -1 0.400000 0.223529 0.192157
v -5 3 -1 0.400000 0.223529 0.192157
v -2 3 -1 0.400000 0.223529 0.192157
v -2 4 -1 0.400000 0.223529 0.192157
v -4 3 -2 0.400000 0.223529 0.192157
v -5 3 -2 0.400000 0.223529 0.192157
v -5 4 -2 0.400000 0.223529 0.192157
v -4 4 -2 0.400000 0.223529 0.192157
v -3 3 -2 0.400000 0.223529 0.192157
v -3 4 -2 0.400000 0.223529 0.192157
v -2 3 -2 0.400000 0.223529 0.192157
v -2 4 -2 0.400000 0.223529 0.192157
v -5 5 -1 0.415686 0.745098 0.188235
v -5 4 -1 0.415686 0.745098 0.188235
v -2 4 -1 0.415686 0.745098 0.188235
v -2 5 -1 0.415686 0.745098 0.188235
v -4 4 -2 0.415686 0.745098 0.188235
v -5 4 -2 0.415686 0.745098 0.188235
v -5 5 -2 0.415686 0.745098 0.188235
v -4 5 -2 0.415686 0.745098 0.188235
v -3 4 -2 0.415686 0.745098 0.188235
v -3 5 -2 0.415686 0.745098 0.188235
v -2 4 -2 0.415686 0.745098 0.188235
v -2 5 -2 0.415686 0.745098 0.188235
v -5 6 -1 0.415686 0.745098 0.188235
v -2 6 -1 0.415686 0.745098 0.188235
v -5 6 -2 0.415686 0.745098 0.188235
v -4 6 -2 0.415686 0.745098 0.188235
v -3 6 -2 0.415686 0.745098 0.188235
v -2 6 -2 0.415686 0.745098 0.188235
v -5 7 -1 0.415686 0.745098 0.188235
v -2 7 -1 0.415686 0.745098 0.188235
v -5 7 -2 0.415686 0.745098 0.188235
v -3 7 -2 0.415686 0.745098 0.188235
v -2 7 -2 0.415686 0.745098 0.188235
v -5 6 -3 0.415686 0.745098 0.188235
v -4 6 -3 0.415686 0.745098 0.188235
v -4 7 -2 0.415686 0.745098 0.188235
v -4 7 -3 0.415686 0.745098 0.188235
v -5 7 -3 0.415686 0.745098 0.188235
v -3 6 -3 0.415686 0.745098 0.188235
v -3 7 -3 0.415686 0.745098 0.188235
v -5 6 -4 0.415686 0.745098 0.188235
v -4 6 -4 0.415686 0.745098 0.188235
v -4 7 -4 0.415686 0.745098 0.188235
v -5 7 -4 0.415686 0.745098 0.188235
v -3 6 -4 0.415686 0.745098 0.188235
v -3 7 -4 0.415686 0.745098 0.188235
v -5 6 -5 0.415686 0.745098 0.188235
v -4 6 -5 0.415686 0.745098 0.188235
v -4 7 -5 0.415686 0.745098 0.188235
v -5 7 -5 0.415686 0.745098 0.188235
v -3 6 -5 0.415686 0.745098 0.188235
v -3 7 -5 0.415686 0.745098 0.188235
v -5 6 -5 0.933333 0.764706 0.603922
v -5 6 -6 0.933333 0.764706 0.603922
v -4 6 -6 0.933333 0.764706 0.603922
v -4 6 -5 0.933333 0.764706 0.603922
v -4 7 -5 0.933333 0.764706 0.603922
v -4 7 -6 0.933333 0.764706 0.603922
v -5 7 -6 0.933333 0.764706 0.603922
v -5 7 -5 0.933333 0.764706 0.603922
v -3 6 -6 0.933333 0.764706 0.603922
v -3 6 -5 0.933333 0.764706 0.603922
v -3 7 -5 0.933333 0.764706 0.603922
v -3 7 -6 0.933333 0.764706 0.603922
v -2 6 -5 0.933333 0.764706 0.603922
v -2 7 -5 0.933333 0.764706 0.603922
v -2 6 -6 0.933333 0.764706 0.603922
v -2 7 -6 0.933333 0.764706 0.603922
v -4 6 -7 0.933333 0.764706 0.603922
v -5 6 -7 0.933333 0.764706 0.603922
v -5 7 -7 0.933333 0.764706 0.603922
v -4 7 -7 0.933333 0.764706 0.603922
v -3 6 -7 0.933333 0.764706 0.603922
v -3 7 -7 0.933333 0.764706 0.603922
v -5 7 -1 0.400000 0.223529 0.192157
v -6 7 -1 0.400000 0.223529 0.192157
v -6 8 -1 0.400000 0.223529 0.192157
v -5 8 -1 0.400000 0.223529 0.192157
v -1 7 -1 0.933333 0.764706 0.603922
v -2 7 -1 0.933333 0.764706 0.603922
v -2 8 -1 0.933333 0.764706 0.603922
v -1 8 -1 0.933333 0.764706 0.603922
v -4 7 -2 0.933333 0.764706 0.603922
v -5 7 -2 0.933333 0.764706 0.603922
v -5 8 -2 0.933333 0.764706 0.603922
v -4 8 -2 0.933333 0.764706 0.603922
v -5 7 -1 0.933333 0.764706 0.603922
v -5 8 -1 0.933333 0.764706 0.603922
v -3 7 -2 0.933333 0.764706 0.603922
v -3 8 -2 0.933333 0.764706 0.603922
v -2 7 -2 0.933333 0.764706 0.603922
v -2 8 -2 0.933333 0.764706 0.603922
v -6 9 -1 0.400000 0.223529 0.192157
v -1 9 -1 0.933333 0.764706 0.603922
v -5 8 -2 0.400000 0.223529 0.192157
v -6 8 -2 0.400000 0.223529 0.192157
v -6 9 -2 0.400000 0.223529 0.192157
v -5 9 -2 0.400000 0.223529 0.192157
v -4 9 -2 0.933333 0.764706 0.603922
v -3 9 -2 0.933333 0.764706 0.603922
v -2 9 -2 0.933333 0.764706 0.603922
v -1 8 -2 0.933333 0.764706 0.603922
v -1 9 -2 0.933333 0.764706 0.603922
v -4 8 -3 0.933333 0.764706 0.603922
v -5 8 -3 0.933333 0.764706 0.603922
v -5 9 -3 0.933333 0.764706 0.603922
v -4 9 -3 0.933333 0.764706 0.603922
v -5 9 -2 0.933333 0.764706 0.603922
v -6 10 -1 0.400000 0.223529 0.192157
v -1 9 0 0.000000 0.000000 0.000000
v -1 9 -1 0.000000 0.000000 0.000000
v -1 10 -1 0.000000 0.000000 0.000000
v -1 10 0 0.000000 0.000000 0.000000
v -6 10 -2 0.400000 0.223529 0.192157
v -5 10 -2 0.400000 0.223529 0.192157
v -3 9 -2 0.400000 0.223529 0.192157
v -4 9 -2 0.400000 0.223529 0.192157
v -4 10 -2 0.400000 0.223529 0.192157
v -3 10 -2 0.400000 0.223529 0.192157
v -3 10 -2 0.933333 0.764706 0.603922
v -2 10 -2 0.933333 0.764706 0.603922
v -1 10 -2 0.933333 0.764706 0.603922
v -1 10 -1 0.933333 0.764706 0.603922
v -5 10 -3 0.933333 0.764706 0.603922
v -4 10 -3 0.933333 0.764706 0.603922
v -4 10 -2 0.933333 0.764706 0.603922
v -5 10 -2 0.933333 0.764706 0.603922
v -6 11 -1 0.400000 0.223529 0.192157
v -1 11 -1 0.000000 0.000000 0.000000
v -1 11 0 0.000000 0.000000 0.000000
v -6 11 -2 0.400000 0.223529 0.192157
v -5 11 -2 0.400000 0.223529 0.192157
v -5 11 -1 0.400000 0.223529 0.192157
v -4 11 -2 0.400000 0.223529 0.192157
v -3 11 -2 0.400000 0.223529 0.192157
v -2 10 -2 0.400000 0.223529 0.192157
v -2 11 -2 0.400000 0.223529 0.192157
v -2 11 -2 0.933333 0.764706 0.603922
v -1 11 -2 0.933333 0.764706 0.603922
v -1 11 -1 0.933333 0.764706 0.603922
v -2 11 -1 0.933333 0.764706 0.603922
v -6 12 -1 0.400000 0.223529 0.192157
v -5 12 -1 0.400000 0.223529 0.192157
v -4 12 -1 0.400000 0.223529 0.192157
v -2 12 -1 0.400000 0.223529 0.192157
v -3 12 -1 0.400000 0.223529 0.192157
v -1 11 -1 0.400000 0.223529 0.192157
v -2 11 -1 0.400000 0.223529 0.192157
v -1 12 -1 0.400000 0.223529 0.192157
v -5 12 -2 0.400000 0.223529 0.192157
v -4 12 -2 0.400000 0.223529 0.192157
v -3 12 -2 0.400000 0.223529 0.192157
v -2 12 -2 0.400000 0.223529 0.192157
v -4 13 -1 0.400000 0.223529 0.192157
v -3 13 -1 0.400000 0.223529 0.192157
vn 0 0 1
vn 0 -1 -0
vn -1 0 0
vn 0 1 0
vn 1 0 0
vn 0 0 -1
f 1//1 2//1 3//1 4//1
f 1//2 5//2 6//2 2//2
f 1//3 4//3 7//3 5//3
f 2//1 8//1 9//1 3//1
f 2//2 6//2 10//2 8//2
f 8//1 11//1 12//1 9//1
f 8//2 10//2 13//2 11//2
f 12//4 14//4 15//4 9//4
f 11//5 13//5 14//5 12//5
f 16//6 17//6 18//6 19//6
f 5//2 17//2 16//2 6//2
f 5//3 7//3 18//3 17//3
f 20//6 16//6 19//6 21//6
f 6//2 16//2 20//2 10//2
f 22//6 20//6 21//6 23//6
f 10//2 20//2 22//2 13//2
f 14//4 23//4 21//4 15//4
f 13//5 22//5 23//5 14//5
f 24//1 25//1 26//1 27//1
f 24//3 27//3 28//3 29//3
f 25//1 30//1 31//1 26//1
f 30//5 32//5 33//5 31//5
f 34//6 35//6 36//6 37//6
f 29//3 28//3 36//3 35//3
f 38//6 34//6 37//6 39//6
f 32//5 38//5 39//5 33//5
f 27//1 26//1 40//1 41//1
f 27//3 41//3 42//3 28//3
f 26//1 31//1 43//1 40//1
f 31//1 44//1 45//1 43//1
f 31//2 33//2 46//2 44//2
f 44//5 46//5 47//5 45//5
f 28//3 42//3 48//3 36//3
f 33//2 39//2 49//2 46//2
f 46//5 49//5 50//5 47//5
f 36//2 51//2 52//2 37//2
f 36//3 48//3 53//3 51//3
f 37//2 52//2 54//2 39//2
f 39//2 54//2 55//2 49//2
f 49//5 55//5 56//5 50//5
f 57//1 58//1 59//1 60//1
f 57//3 60//3 61//3 62//3
f 58//1 63//1 64//1 59//1
f 63//1 65//1 66//1 64//1
f 65//5 67//5 68//5 66//5
f 62//3 61//3 69//3 70//3
f 67//5 71//5 72//5 68//5
f 70//3 69//3 73//3 74//3
f 71//5 75//5 76//5 72//5
f 77//1 78//1 79//1 80//1
f 77//3 80//3 81//3 82//3
f 78//1 83//1 84//1 79//1
f 83//1 85//1 86//1 84//1
f 85//5 87//5 88//5 86//5
f 82//3 81//3 89//3 90//3
f 87//5 91//5 92//5 88//5
f 90//3 89//3 93//3 94//3
f 91//5 95//5 96//5 92//5
f 80//1 79//1 97//1 98//1
f 80//3 98//3 99//3 81//3
f 79//1 84//1 100//1 97//1
f 84//1 86//1 101//1 100//1
f 86//5 88//5 102//5 101//5
f 81//3 99//3 103//3 89//3
f 88//5 92//5 104//5 102//5
f 89//3 103//3 105//3 93//3
f 92//5 96//5 106//5 104//5
f 107//1 108//1 109//1 110//1
f 107//2 111//2 112//2 108//2
f 109//4 113//4 114//4 110//4
f 107//3 110//3 114//3 111//3
f 108//1 115//1 116//1 109//1
f 108//2 112//2 117//2 115//2
f 116//4 118//4 113//4 109//4
f 115//5 117//5 118//5 116//5
f 111//2 119//2 120//2 112//2
f 113//4 121//4 122//4 114//4
f 111//3 114//3 122//3 119//3
f 112//2 120//2 123//2 117//2
f 118//4 124//4 121//4 113//4
f 117//1 125//1 126//1 118//1
f 127//6 123//6 124//6 128//6
f 117//2 123//2 127//2 125//2
f 126//4 128//4 124//4 118//4
f 125//5 127//5 128//5 126//5
f 129//2 130//2 131//2 132//2
f 133//4 134//4 135//4 136//4
f 129//3 136//3 135//3 130//3
f 132//2 131//2 137//2 138//2
f 139//4 140//4 134//4 133//4
f 138//5 137//5 140//5 139//5
f 130//2 141//2 142//2 131//2
f 134//4 143//4 144//4 135//4
f 130//3 135//3 144//3 141//3
f 131//2 142//2 145//2 137//2
f 140//4 146//4 143//4 134//4
f 137//5 145//5 146//5 140//5
f 141//2 98//2 97//2 142//2
f 143//4 147//4 148//4 144//4
f 141//3 144//3 148//3 98//3
f 142//2 97//2 100//2 145//2
f 146//4 149//4 147//4 143//4
f 145//5 100//5 149//5 146//5
f 98//3 148//3 150//3 99//3
f 100//1 101//1 151//1 149//1
f 101//5 102//5 152//5 151//5
f 99//3 150//3 153//3 103//3
f 102//5 104//5 154//5 152//5
f 103//3 153//3 155//3 105//3
f 104//5 106//5 156//5 154//5
f 157//1 158//1 159//1 160//1
f 157//3 160//3 161//3 162//3
f 158//1 163//1 164//1 159//1
f 163//1 165//1 166//1 164//1
f 165//5 167//5 168//5 166//5
f 169//1 170//1 171//1 172//1
f 169//2 173//2 174//2 170//2
f 169//3 172//3 175//3 173//3
f 167//1 176//1 177//1 168//1
f 167//2 178//2 179//2 176//2
f 176//5 179//5 180//5 177//5
f 173//2 181//2 182//2 174//2
f 173//3 175//3 183//3 181//3
f 178//2 184//2 185//2 179//2
f 179//5 185//5 186//5 180//5
f 187//1 188//1 189//1 190//1
f 187//2 160//2 159//2 188//2
f 188//5 159//5 191//5 189//5
f 187//3 190//3 192//3 160//3
f 193//1 194//1 195//1 196//1
f 193//2 172//2 171//2 194//2
f 193//3 196//3 197//3 172//3
f 159//1 164//1 198//1 191//1
f 164//1 166//1 199//1 198//1
f 166//1 200//1 201//1 199//1
f 166//2 168//2 177//2 200//2
f 200//5 177//5 202//5 201//5
f 172//3 197//3 203//3 175//3
f 177//5 180//5 204//5 202//5
f 175//3 203//3 205//3 183//3
f 180//1 206//1 207//1 204//1
f 208//6 186//6 209//6 210//6
f 180//2 186//2 208//2 206//2
f 207//4 210//4 209//4 204//4
f 206//5 208//5 210//5 207//5
f 190//1 189//1 211//1 212//1
f 211//4 213//4 214//4 212//4
f 189//5 191//5 213//5 211//5
f 190//3 212//3 214//3 192//3
f 196//1 195//1 215//1 216//1
f 196//3 216//3 217//3 197//3
f 218//1 219//1 220//1 221//1
f 198//1 199//1 222//1 223//1
f 199//1 201//1 224//1 222//1
f 201//5 202//5 225//5 224//5
f 197//3 217//3 226//3 203//3
f 227//5 228//5 229//5 230//5
f 203//3 226//3 231//3 205//3
f 204//5 209//5 232//5 233//5
f 216//1 215//1 234//1 235//1
f 234//4 236//4 237//4 235//4
f 216//3 235//3 237//3 217//3
f 215//1 221//1 238//1 234//1
f 221//1 220//1 239//1 238//1
f 220//1 240//1 241//1 239//1
f 222//1 224//1 242//1 243//1
f 224//5 225//5 244//5 242//5
f 217//3 237//3 245//3 226//3
f 230//5 229//5 246//5 247//5
f 226//3 245//3 248//3 231//3
f 233//5 232//5 249//5 250//5
f 234//1 238//1 251//1 252//1
f 251//4 253//4 254//4 252//4
f 234//3 252//3 254//3 236//3
f 238//1 239//1 255//1 251//1
f 255//4 256//4 253//4 251//4
f 239//1 241//1 257//1 255//1
f 241//1 258//1 259//1 257//1
f 258//1 260//1 261//1 259//1
f 262//6 263//6 264//6 265//6
f 258//2 263//2 262//2 260//2
f 260//5 262//5 265//5 261//5
f 237//1 236//1 254//1 266//1
f 254//4 267//4 268//4 266//4
f 237//3 266//3 268//3 245//3
f 253//4 269//4 267//4 254//4
f 244//5 250//5 270//5 271//5
f 267//4 272//4 273//4 268//4
f 245//3 268//3 273//3 248//3
f 274//5 275//5 276//5 277//5
f 255//1 257//1 278//1 279//1
f 278//4 280//4 281//4 279//4
f 255//3 279//3 281//3 256//3
f 257//1 259//1 282//1 278//1
f 282//4 283//4 280//4 278//4
f 259//1 261//1 284//1 282//1
f 265//6 264//6 283//6 285//6
f 284//4 285//4 283//4 282//4
f 261//5 265//5 285//5 284//5
f 253//1 256//1 281//1 286//1
f 281//4 287//4 288//4 286//4
f 253//3 286//3 288//3 269//3
f 280//4 289//4 287//4 281//4
f 283//4 290//4 289//4 280//4
f 264//5 277//5 290//5 283//5
f 267//1 269//1 288//1 291//1
f 292//6 272//6 293//6 294//6
f 288//4 294//4 293//4 291//4
f 267//3 291//3 293//3 272//3
f 287//4 295//4 294//4 288//4
f 296//6 297//6 295//6 298//6
f 289//4 298//4 295//4 287//4
f 276//6 296//6 298//6 299//6
f 290//4 299//4 298//4 289//4
f 277//5 276//5 299//5 290//5
f 300//1 301//1 302//1 303//1
f 300//2 304//2 305//2 301//2
f 300//3 303//3 306//3 304//3
f 301//1 307//1 308//1 302//1
f 301//2 305//2 309//2 307//2
f 307//1 310//1 311//1 308//1
f 307//2 309//2 312//2 310//2
f 311//4 313//4 314//4 308//4
f 310//5 312//5 313//5 311//5
f 315//6 316//6 317//6 318//6
f 304//2 316//2 315//2 305//2
f 304//3 306//3 317//3 316//3
f 319//6 315//6 318//6 320//6
f 305//2 315//2 319//2 309//2
f 321//6 319//6 320//6 322//6
f 309//2 319//2 321//2 312//2
f 313//4 322//4 320//4 314//4
f 312//5 321//5 322//5 313//5
f 323//1 324//1 52//1 51//1
f 323//3 51//3 325//3 326//3
f 324//1 327//1 54//1 52//1
f 327//5 328//5 329//5 54//5
f 330//6 331//6 332//6 333//6
f 326//3 325//3 332//3 331//3
f 334//6 330//6 333//6 335//6
f 328//5 334//5 335//5 329//5
f 51//3 53//3 336//3 325//3
f 54//2 329//2 337//2 55//2
f 55//5 337//5 338//5 56//5
f 333//6 332//6 339//6 340//6
f 325//3 336//3 339//3 332//3
f 335//6 333//6 340//6 341//6
f 342//6 335//6 341//6 343//6
f 329//2 335//2 342//2 337//2
f 337//5 342//5 343//5 338//5
f 74//3 73//3 344//3 345//3
f 75//5 346//5 347//5 76//5
f 348//6 349//6 350//6 351//6
f 345//3 344//3 350//3 349//3
f 352//6 348//6 351//6 353//6
f 354//6 352//6 353//6 355//6
f 346//5 354//5 355//5 347//5
f 94//3 93//3 356//3 357//3
f 95//5 358//5 359//5 96//5
f 360//6 361//6 362//6 363//6
f 357//3 356//3 362//3 361//3
f 364//6 360//6 363//6 365//6
f 366//6 364//6 365//6 367//6
f 358//5 366//5 367//5 359//5
f 93//3 105//3 368//3 356//3
f 96//5 359//5 369//5 106//5
f 363//6 362//6 370//6 371//6
f 356//3 368//3 370//3 362//3
f 365//6 363//6 371//6 372//6
f 367//6 365//6 372//6 373//6
f 359//5 367//5 373//5 369//5
f 105//3 155//3 374//3 368//3
f 106//5 369//5 375//5 156//5
f 368//3 374//3 376//3 370//3
f 373//6 372//6 377//6 378//6
f 369//5 373//5 378//5 375//5
f 370//2 379//2 380//2 371//2
f 381//4 382//4 383//4 376//4
f 370//3 376//3 383//3 379//3
f 371//2 380//2 384//2 372//2
f 377//4 385//4 382//4 381//4
f 372//5 384//5 385//5 377//5
f 379//2 386//2 387//2 380//2
f 382//4 388//4 389//4 383//4
f 379//3 383//3 389//3 386//3
f 380//2 387//2 390//2 384//2
f 385//4 391//4 388//4 382//4
f 384//5 390//5 391//5 385//5
f 386//2 392//2 393//2 387//2
f 388//4 394//4 395//4 389//4
f 386//3 389//3 395//3 392//3
f 387//2 393//2 396//2 390//2
f 391//4 397//4 394//4 388//4
f 390//5 396//5 397//5 391//5
f 398//2 399//2 400//2 401//2
f 402//4 403//4 404//4 405//4
f 398//3 405//3 404//3 399//3
f 401//2 400//2 406//2 407//2
f 408//4 409//4 403//4 402//4
f 407//1 410//1 411//1 408//1
f 412//6 406//6 409//6 413//6
f 407//2 406//2 412//2 410//2
f 411//4 413//4 409//4 408//4
f 410//5 412//5 413//5 411//5
f 414//6 415//6 416//6 417//6
f 399//2 415//2 414//2 400//2
f 403//4 417//4 416//4 404//4
f 399//3 404//3 416//3 415//3
f 418//6 414//6 417//6 419//6
f 400//2 414//2 418//2 406//2
f 409//4 419//4 417//4 403//4
f 406//5 418//5 419//5 409//5
f 420//6 421//6 422//6 423//6
f 181//2 421//2 420//2 182//2
f 181//3 183//3 422//3 421//3
f 424//6 425//6 426//6 427//6
f 184//2 425//2 424//2 185//2
f 185//5 424//5 427//5 186//5
f 428//6 429//6 430//6 431//6
f 432//3 433//3 430//3 429//3
f 434//6 428//6 431//6 435//6
f 436//6 434//6 435//6 437//6
f 425//5 436//5 437//5 426//5
f 183//3 205//3 438//3 422//3
f 186//5 427//5 439//5 209//5
f 440//6 441//6 442//6 443//6
f 422//2 441//2 440//2 423//2
f 422//3 438//3 442//3 441//3
f 435//6 431//6 444//6 445//6
f 437//6 435//6 445//6 446//6
f 447//6 437//6 446//6 448//6
f 426//2 437//2 447//2 427//2
f 427//5 447//5 448//5 439//5
f 449//6 450//6 451//6 452//6
f 430//2 450//2 449//2 431//2
f 431//5 449//5 452//5 444//5
f 430//3 453//3 451//3 450//3
f 205//3 231//3 454//3 438//3
f 455//5 456//5 457//5 458//5
f 443//6 442//6 459//6 460//6
f 438//3 454//3 459//3 442//3
f 461//6 462//6 463//6 464//6
f 446//6 445//6 465//6 466//6
f 448//6 446//6 466//6 467//6
f 439//5 448//5 467//5 468//5
f 452//6 451//6 469//6 470//6
f 471//4 470//4 469//4 472//4
f 444//5 452//5 470//5 471//5
f 453//3 472//3 469//3 451//3
f 231//3 248//3 473//3 454//3
f 458//5 457//5 474//5 475//5
f 460//6 459//6 476//6 477//6
f 478//4 477//4 476//4 473//4
f 454//3 473//3 476//3 459//3
f 463//6 460//6 477//6 479//6
f 464//6 463//6 479//6 480//6
f 481//6 464//6 480//6 482//6
f 467//6 466//6 483//6 484//6
f 485//4 484//4 483//4 486//4
f 468//5 467//5 484//5 485//5
f 478//6 473//6 487//6 488//6
f 272//4 488//4 487//4 273//4
f 248//3 273//3 487//3 473//3
f 292//4 489//4 488//4 272//4
f 296//4 490//4 491//4 297//4
f 492//6 493//6 490//6 494//6
f 276//4 494//4 490//4 296//4
f 275//5 492//5 494//5 276//5
f 479//6 477//6 495//6 496//6
f 489//4 496//4 495//4 488//4
f 478//3 488//3 495//3 477//3
f 480//6 479//6 496//6 497//6
f 491//4 497//4 496//4 489//4
f 482//6 480//6 497//6 498//6
f 490//4 498//4 497//4 491//4
f 493//5 482//5 498//5 490//5
f 491//6 489//6 499//6 500//6
f 295//4 500//4 499//4 294//4
f 297//5 491//5 500//5 295//5
f 292//3 294//3 499//3 489//3
